<svg id="svg" version="1.1" xmlns="http://www.w3.org/2000/svg" xmlns:xlink="http://www.w3.org/1999/xlink" width="400" height="212.4087591240876" viewBox="0, 0, 400,212.4087591240876"><g id="svgg"><path id="path0" d="M224.060 103.390 C 224.324 103.441,224.706 103.439,224.910 103.385 C 225.113 103.332,224.896 103.291,224.429 103.293 C 223.962 103.295,223.796 103.339,224.060 103.390 M183.388 104.803 C 182.203 105.406,182.295 102.960,182.353 132.448 C 182.412 161.933,182.390 160.093,182.680 160.272 C 182.801 160.346,182.900 160.589,182.900 160.810 C 182.900 161.870,184.811 162.744,185.449 161.976 C 185.775 161.583,187.010 161.537,186.884 161.922 C 186.836 162.069,186.493 162.218,186.123 162.255 C 184.247 162.440,185.862 162.606,189.007 162.551 L 192.565 162.488 192.640 161.913 C 192.990 159.238,192.854 105.403,192.497 105.080 C 192.203 104.814,191.536 104.700,189.787 104.616 C 188.511 104.556,186.750 104.470,185.874 104.427 C 184.562 104.362,184.123 104.428,183.388 104.803 M221.721 104.921 L 221.137 105.548 221.139 133.270 L 221.141 160.992 221.670 161.408 C 221.961 161.637,222.199 161.973,222.199 162.155 C 222.199 162.435,222.667 162.494,225.332 162.549 C 228.679 162.617,228.853 162.605,228.231 162.352 C 227.360 161.998,227.751 161.719,229.151 161.695 C 231.461 161.656,231.219 164.887,231.286 133.227 L 231.345 105.449 230.836 104.971 C 230.293 104.461,230.222 104.453,226.811 104.503 C 225.668 104.520,224.186 104.479,223.518 104.414 C 222.377 104.301,222.270 104.331,221.721 104.921 M194.429 110.037 C 194.429 110.563,194.470 110.778,194.521 110.515 C 194.571 110.252,194.571 109.822,194.521 109.559 C 194.470 109.296,194.429 109.511,194.429 110.037 M200.885 116.552 C 200.593 116.844,200.759 117.260,201.168 117.260 C 201.452 117.260,201.593 117.118,201.593 116.835 C 201.593 116.425,201.178 116.259,200.885 116.552 M194.450 149.230 C 194.451 150.515,194.486 151.014,194.528 150.337 C 194.570 149.661,194.570 148.610,194.527 148.001 C 194.484 147.392,194.450 147.945,194.450 149.230 M181.478 151.142 C 181.480 151.843,181.519 152.104,181.567 151.722 C 181.614 151.340,181.613 150.767,181.564 150.448 C 181.516 150.128,181.477 150.441,181.478 151.142 M181.489 155.497 C 181.489 156.606,181.525 157.061,181.569 156.506 C 181.613 155.951,181.613 155.042,181.569 154.488 C 181.525 153.933,181.489 154.387,181.489 155.497 M202.496 197.273 C 202.189 197.397,202.135 198.535,202.427 198.715 C 202.534 198.782,202.689 199.146,202.770 199.524 C 202.919 200.224,203.071 200.581,203.893 202.166 C 204.147 202.657,204.355 203.215,204.355 203.406 C 204.355 203.597,204.689 204.433,205.098 205.263 C 205.507 206.093,205.842 206.924,205.842 207.109 C 205.842 207.295,205.973 207.635,206.133 207.866 C 206.294 208.096,206.490 208.585,206.570 208.953 C 206.867 210.316,207.812 210.639,208.070 209.465 C 208.144 209.124,208.343 208.731,208.511 208.592 C 208.678 208.453,208.816 208.249,208.816 208.139 C 208.816 207.796,209.842 205.677,210.078 205.531 C 210.202 205.454,210.303 205.060,210.303 204.654 C 210.303 203.969,210.582 203.325,211.874 201.028 C 212.148 200.542,212.439 199.873,212.522 199.541 C 212.605 199.209,212.821 198.773,213.003 198.572 C 213.301 198.240,213.299 198.154,212.981 197.669 L 212.630 197.132 207.696 197.149 C 204.982 197.158,202.642 197.214,202.496 197.273 " stroke="none" fill="#1477c0" fill-rule="evenodd"></path><path id="path1" d="M199.344 6.691 C 199.270 6.984,199.130 7.223,199.031 7.223 C 198.184 7.223,197.505 11.797,198.085 13.595 C 198.255 14.121,198.449 14.910,198.516 15.348 C 198.593 15.847,198.754 16.144,198.947 16.144 C 199.117 16.144,199.257 16.231,199.257 16.338 C 199.257 17.315,203.800 20.605,205.148 20.605 C 206.299 20.605,206.894 22.533,206.029 23.463 C 205.926 23.574,205.842 24.494,205.842 25.509 L 205.842 27.354 204.878 28.281 C 204.347 28.791,203.415 29.728,202.806 30.362 C 200.984 32.260,199.821 33.344,199.203 33.722 C 198.882 33.919,198.619 34.172,198.619 34.285 C 198.619 34.397,198.309 34.793,197.929 35.164 C 197.549 35.536,196.795 36.307,196.252 36.879 C 195.710 37.450,194.993 38.177,194.659 38.493 C 194.325 38.810,193.944 39.180,193.812 39.315 C 193.680 39.451,193.260 39.858,192.879 40.221 C 192.498 40.583,192.063 41.172,191.914 41.530 C 191.764 41.888,190.535 43.300,189.183 44.667 C 187.830 46.035,186.723 47.279,186.723 47.431 C 186.723 47.583,186.288 48.134,185.755 48.655 C 185.223 49.176,184.455 50.101,184.049 50.710 C 183.643 51.320,183.187 51.894,183.037 51.985 C 182.886 52.076,182.364 52.677,181.876 53.319 C 181.388 53.962,180.858 54.631,180.700 54.806 C 180.541 54.981,179.862 55.842,179.191 56.718 C 178.520 57.594,177.837 58.388,177.674 58.481 C 177.510 58.575,177.377 58.800,177.377 58.982 C 177.377 59.315,176.415 60.634,175.522 61.527 C 175.257 61.792,175.040 62.167,175.040 62.360 C 175.040 62.553,174.753 63.073,174.403 63.516 C 174.052 63.958,173.765 64.383,173.765 64.461 C 173.765 64.538,173.586 65.002,173.366 65.492 C 172.023 68.494,171.451 70.316,171.312 72.029 C 171.159 73.916,171.567 81.387,171.833 81.571 C 172.025 81.703,172.820 83.397,173.031 84.121 C 173.116 84.413,173.244 84.700,173.316 84.758 C 173.388 84.817,173.676 85.343,173.956 85.927 C 174.236 86.511,174.549 87.132,174.651 87.307 C 174.753 87.483,174.971 87.913,175.135 88.263 C 175.299 88.614,175.626 89.017,175.861 89.160 C 176.280 89.414,178.346 92.077,178.839 92.997 C 178.976 93.253,179.348 93.526,179.666 93.604 C 179.984 93.681,180.486 93.993,180.782 94.297 C 181.205 94.732,184.982 96.867,185.328 96.867 C 185.575 96.867,185.051 95.750,184.297 94.669 C 182.899 92.665,181.327 89.972,181.090 89.177 C 181.010 88.908,180.714 88.207,180.432 87.618 C 179.965 86.642,179.397 84.111,179.137 81.849 C 179.081 81.358,179.188 80.348,179.374 79.605 C 179.561 78.861,179.713 77.990,179.713 77.670 C 179.713 77.349,180.000 76.509,180.351 75.803 C 180.701 75.096,180.988 74.399,180.988 74.254 C 180.988 74.109,181.179 73.769,181.413 73.500 C 181.646 73.230,181.837 72.930,181.837 72.833 C 181.837 72.580,183.094 70.573,183.622 69.982 C 183.867 69.708,184.450 69.017,184.918 68.447 C 185.385 67.876,186.030 67.255,186.352 67.066 C 186.673 66.877,186.936 66.563,186.936 66.369 C 186.936 66.175,187.401 65.525,187.970 64.925 C 188.538 64.325,189.563 63.230,190.248 62.490 C 190.932 61.751,191.752 60.993,192.068 60.806 C 192.385 60.619,192.701 60.241,192.770 59.966 C 192.839 59.691,194.183 58.177,195.757 56.602 C 197.331 55.027,198.619 53.595,198.619 53.418 C 198.619 53.242,199.546 52.142,200.679 50.972 C 201.811 49.803,202.937 48.492,203.179 48.059 C 203.422 47.627,203.841 47.163,204.110 47.029 C 204.379 46.895,204.819 46.461,205.088 46.066 C 205.759 45.078,206.495 44.702,207.109 45.031 C 207.741 45.369,209.987 47.598,210.150 48.049 C 210.221 48.247,210.545 48.581,210.869 48.793 C 211.847 49.430,218.691 56.338,219.225 57.227 C 219.499 57.682,220.208 58.547,220.801 59.150 C 222.065 60.433,223.116 61.617,224.004 62.758 C 224.355 63.208,225.335 64.249,226.182 65.069 C 227.029 65.890,227.722 66.647,227.722 66.752 C 227.722 66.952,229.577 69.170,230.470 70.038 C 230.754 70.315,231.137 70.766,231.319 71.040 C 231.502 71.314,232.058 72.129,232.554 72.852 C 233.230 73.836,233.457 74.372,233.457 74.979 C 233.457 75.471,233.572 75.835,233.749 75.903 C 234.423 76.161,235.454 79.496,235.436 81.360 C 235.416 83.501,234.480 87.763,233.856 88.557 C 233.637 88.836,233.457 89.318,233.457 89.629 C 233.457 89.939,232.979 91.027,232.395 92.045 C 231.811 93.064,231.333 93.951,231.333 94.016 C 231.333 94.237,229.984 96.121,229.489 96.591 C 228.426 97.601,229.166 98.262,230.564 97.551 C 231.045 97.307,231.583 97.049,231.758 96.978 C 232.874 96.529,234.255 95.376,236.915 92.673 C 237.863 91.709,238.811 90.866,239.022 90.799 C 239.233 90.732,239.405 90.593,239.405 90.490 C 239.405 90.276,240.566 88.475,241.115 87.839 C 241.316 87.605,241.553 87.175,241.642 86.883 C 241.731 86.591,242.050 85.969,242.352 85.502 C 242.934 84.598,243.899 82.341,244.422 80.658 C 244.596 80.097,244.877 79.585,245.046 79.520 C 245.656 79.286,245.480 71.473,244.852 70.887 C 244.576 70.630,244.235 70.003,244.093 69.494 C 243.951 68.985,243.461 67.790,243.003 66.839 C 242.545 65.887,242.170 64.995,242.169 64.855 C 242.168 64.716,241.961 64.458,241.709 64.281 C 241.213 63.934,239.408 61.419,239.407 61.073 C 239.406 60.956,239.120 60.574,238.771 60.223 C 237.767 59.215,236.197 57.295,235.951 56.771 C 235.827 56.508,235.644 56.293,235.544 56.293 C 235.186 56.293,233.857 54.736,233.748 54.188 C 233.678 53.841,233.115 53.191,232.255 52.466 C 231.496 51.825,230.730 51.027,230.554 50.692 C 230.378 50.356,229.669 49.475,228.978 48.732 C 228.287 47.990,227.722 47.282,227.722 47.160 C 227.722 47.037,227.484 46.829,227.194 46.697 C 226.903 46.564,226.467 46.065,226.224 45.586 C 225.981 45.107,225.072 44.095,224.204 43.335 C 223.315 42.557,222.469 41.607,222.266 41.159 C 222.068 40.722,221.741 40.312,221.540 40.248 C 221.339 40.184,220.811 39.682,220.367 39.131 C 219.033 37.478,217.641 36.055,212.162 30.749 C 211.228 29.843,210.394 29.102,210.309 29.102 C 210.224 29.102,209.714 28.696,209.175 28.200 L 208.195 27.297 207.976 25.279 C 207.567 21.514,207.786 21.047,210.121 20.688 C 212.033 20.394,215.306 18.204,214.540 17.731 C 214.415 17.653,214.143 17.743,213.937 17.929 C 213.731 18.116,213.187 18.272,212.729 18.276 C 212.271 18.280,211.514 18.468,211.046 18.694 C 210.024 19.187,209.069 19.229,208.465 18.807 C 208.220 18.635,207.601 18.428,207.090 18.346 C 206.273 18.216,205.640 17.940,203.612 16.834 C 202.541 16.249,200.986 14.639,200.838 13.961 C 200.756 13.585,200.558 13.088,200.398 12.858 C 200.237 12.627,200.106 12.217,200.106 11.946 C 200.106 11.676,199.903 11.056,199.655 10.570 C 199.251 9.778,199.231 9.586,199.461 8.720 C 199.868 7.190,199.967 6.160,199.708 6.160 C 199.581 6.160,199.417 6.399,199.344 6.691 M215.501 17.005 C 215.299 17.331,215.575 17.542,215.848 17.270 C 216.000 17.117,216.004 16.998,215.859 16.908 C 215.740 16.835,215.579 16.878,215.501 17.005 M192.142 171.408 C 191.148 171.557,191.015 171.887,191.491 173.027 C 191.673 173.462,191.822 173.958,191.822 174.129 C 191.822 174.301,192.013 174.685,192.246 174.982 C 192.480 175.279,192.671 175.736,192.671 175.998 C 192.671 176.260,192.815 176.594,192.990 176.739 C 193.165 176.885,193.309 177.145,193.309 177.317 C 193.309 177.489,193.448 177.883,193.618 178.193 C 194.071 179.017,194.796 180.719,194.796 180.959 C 194.796 181.073,195.121 181.819,195.518 182.617 C 196.540 184.669,196.869 185.458,197.023 186.228 C 197.097 186.598,197.296 186.953,197.464 187.018 C 197.632 187.082,197.773 187.353,197.777 187.619 C 197.781 187.886,197.921 188.343,198.088 188.635 C 198.255 188.927,198.395 189.520,198.399 189.953 C 198.404 190.481,198.566 190.901,198.891 191.228 C 199.157 191.496,199.526 191.932,199.710 192.197 C 200.104 192.764,207.282 193.075,213.172 192.781 L 216.251 192.627 216.251 191.825 C 216.251 191.385,216.382 190.915,216.543 190.781 C 216.703 190.648,216.894 190.171,216.966 189.721 C 217.038 189.272,217.240 188.628,217.416 188.292 C 217.591 187.955,217.736 187.570,217.736 187.436 C 217.737 187.303,217.881 187.139,218.056 187.071 C 218.232 187.004,218.375 186.822,218.375 186.667 C 218.375 186.511,218.710 185.731,219.118 184.933 C 219.527 184.134,219.862 183.350,219.862 183.189 C 219.862 183.029,220.053 182.541,220.287 182.105 C 220.520 181.669,220.712 181.192,220.712 181.044 C 220.712 180.896,220.807 180.775,220.924 180.775 C 221.041 180.775,221.136 180.585,221.136 180.352 C 221.136 180.120,221.328 179.810,221.561 179.664 C 221.795 179.518,221.987 179.207,221.988 178.972 C 221.988 178.737,222.132 178.271,222.306 177.936 C 222.481 177.602,222.623 177.238,222.623 177.128 C 222.623 176.871,223.357 175.159,223.901 174.148 C 224.133 173.716,224.323 173.213,224.323 173.030 C 224.323 172.847,224.440 172.510,224.583 172.281 C 225.184 171.318,225.277 171.324,208.646 171.302 C 200.035 171.291,192.608 171.339,192.142 171.408 " stroke="none" fill="#d8261e" fill-rule="evenodd"></path><path id="path2" d="M197.823 33.279 C 197.677 33.338,197.557 33.511,197.557 33.663 C 197.557 33.814,197.366 33.989,197.132 34.050 C 196.434 34.233,196.651 34.626,197.451 34.626 C 198.159 34.626,198.194 34.590,198.194 33.882 C 198.194 33.473,198.170 33.146,198.141 33.155 C 198.112 33.165,197.969 33.220,197.823 33.279 M199.044 60.533 C 199.044 60.646,198.846 60.922,198.604 61.148 C 198.052 61.662,198.097 62.943,198.672 63.052 C 198.932 63.101,199.044 62.986,199.044 62.672 C 199.044 62.424,199.281 61.985,199.571 61.695 L 200.098 61.168 207.378 61.234 C 211.382 61.269,214.873 61.379,215.135 61.476 C 215.567 61.636,215.613 61.589,215.613 60.991 L 215.613 60.329 207.329 60.329 C 202.171 60.329,199.044 60.406,199.044 60.533 M198.679 63.952 C 198.537 64.330,198.480 64.736,198.553 64.854 C 198.628 64.976,198.579 65.003,198.440 64.917 C 198.305 64.833,198.194 64.866,198.194 64.990 C 198.194 65.114,198.314 65.217,198.460 65.218 C 198.655 65.221,198.660 65.263,198.479 65.378 C 198.306 65.488,198.383 65.710,198.734 66.119 C 199.273 66.745,204.114 67.050,204.467 66.480 C 204.839 65.879,204.084 65.620,202.070 65.657 C 199.773 65.700,199.298 65.445,199.066 64.044 L 198.938 63.264 198.679 63.952 M215.401 64.948 C 215.226 65.016,214.979 65.212,214.852 65.383 C 214.674 65.625,214.163 65.687,212.581 65.657 C 209.690 65.603,209.825 65.291,209.824 72.069 C 209.823 76.483,209.875 77.430,210.116 77.430 C 210.356 77.430,210.419 76.455,210.466 72.066 L 210.522 66.702 213.068 66.702 C 215.611 66.702,215.613 66.702,215.613 66.194 C 215.613 65.914,215.755 65.631,215.928 65.564 C 216.108 65.496,216.189 65.303,216.118 65.117 C 215.985 64.770,215.906 64.751,215.401 64.948 M245.700 70.847 C 245.458 71.479,245.559 71.686,245.928 71.316 C 246.187 71.058,246.225 70.888,246.063 70.725 C 245.900 70.563,245.796 70.598,245.700 70.847 M209.772 78.173 C 209.594 78.461,209.834 78.810,210.209 78.810 C 210.377 78.810,210.515 78.619,210.515 78.386 C 210.515 77.946,210.003 77.799,209.772 78.173 M209.878 80.191 C 209.878 80.412,209.656 80.510,209.152 80.510 C 207.800 80.510,207.269 80.979,208.322 81.244 C 208.727 81.345,208.944 81.291,209.076 81.054 C 209.178 80.872,209.386 80.722,209.537 80.722 C 209.688 80.722,209.985 80.531,210.196 80.297 C 210.542 79.915,210.546 79.873,210.229 79.873 C 210.036 79.873,209.878 80.016,209.878 80.191 M205.008 80.856 C 205.272 81.181,205.270 81.206,204.992 81.051 C 204.749 80.915,204.730 80.934,204.911 81.130 C 205.252 81.501,206.798 81.341,206.798 80.935 C 206.798 80.704,206.510 80.598,205.752 80.550 C 204.778 80.488,204.727 80.509,205.008 80.856 M213.058 88.361 C 213.653 88.737,212.829 88.793,205.842 88.847 L 198.938 88.901 198.927 97.929 C 198.915 107.393,198.929 107.700,199.365 107.700 C 199.514 107.700,199.688 107.837,199.752 108.004 C 199.844 108.243,200.361 108.302,202.207 108.284 C 203.493 108.272,204.497 108.183,204.437 108.087 C 204.378 107.991,204.455 107.911,204.608 107.910 C 204.810 107.907,204.799 107.850,204.567 107.700 C 204.392 107.587,203.511 107.493,202.611 107.491 C 200.526 107.487,200.200 107.201,199.984 105.185 C 199.732 102.833,200.005 90.341,200.316 89.965 C 200.669 89.540,213.875 89.478,214.296 89.899 C 215.101 90.704,214.465 93.680,213.488 93.680 C 213.038 93.680,212.897 93.764,212.981 93.981 C 213.106 94.309,214.098 94.267,215.084 93.892 L 215.643 93.680 215.575 91.308 L 215.507 88.936 214.870 88.859 C 213.803 88.730,213.549 88.596,213.920 88.361 C 214.148 88.218,214.030 88.164,213.489 88.164 C 212.948 88.164,212.831 88.218,213.058 88.361 M205.334 93.863 C 205.290 93.938,205.267 94.525,205.283 95.167 L 205.311 96.336 209.229 96.394 C 213.826 96.462,213.916 96.497,213.911 98.227 C 213.907 99.585,213.753 99.824,212.724 100.066 C 211.935 100.252,206.537 100.148,205.819 99.933 C 205.270 99.769,204.912 100.356,205.215 100.923 C 205.360 101.194,205.423 101.812,205.362 102.371 C 205.228 103.600,205.339 103.931,205.806 103.690 C 206.001 103.590,207.858 103.529,209.934 103.556 C 214.430 103.613,214.551 103.665,214.551 105.517 C 214.551 107.366,214.413 107.488,212.331 107.488 C 210.344 107.488,209.853 107.601,210.014 108.022 C 210.097 108.238,210.642 108.301,212.238 108.279 C 213.872 108.257,214.327 108.188,214.245 107.976 C 214.186 107.822,214.288 107.700,214.474 107.700 C 214.701 107.700,214.767 107.821,214.680 108.072 C 214.556 108.426,214.564 108.426,214.840 108.072 C 214.999 107.868,215.238 107.700,215.371 107.700 C 215.978 107.700,215.667 103.537,215.029 103.109 C 214.326 102.637,211.987 102.529,212.159 102.976 C 212.226 103.151,212.143 103.199,211.921 103.113 C 211.733 103.041,211.622 102.914,211.675 102.829 C 211.727 102.745,211.177 102.702,210.452 102.734 C 208.743 102.811,208.884 102.811,207.594 102.736 C 206.774 102.689,206.479 102.747,206.479 102.956 C 206.479 103.348,206.060 103.315,206.028 102.921 C 206.013 102.746,205.986 102.483,205.967 102.337 C 205.949 102.191,206.033 102.001,206.153 101.915 C 206.296 101.814,206.282 101.758,206.114 101.756 C 205.972 101.754,205.910 101.609,205.977 101.434 C 206.075 101.179,206.541 101.115,208.307 101.115 C 210.107 101.115,210.515 101.058,210.515 100.803 C 210.515 100.614,210.640 100.539,210.833 100.613 C 211.007 100.680,211.104 100.809,211.049 100.899 C 210.993 100.989,211.670 101.077,212.552 101.094 C 213.435 101.111,214.113 101.051,214.058 100.961 C 213.950 100.783,214.440 100.254,214.706 100.261 C 214.796 100.264,214.870 99.199,214.870 97.896 C 214.870 95.079,215.422 95.374,210.168 95.382 C 206.828 95.387,206.298 95.343,206.185 95.048 C 205.958 94.457,206.041 94.285,206.484 94.425 C 207.032 94.599,208.221 94.345,208.062 94.088 C 207.995 93.981,208.291 93.893,208.720 93.893 C 209.336 93.893,209.472 93.961,209.372 94.222 C 209.299 94.411,209.335 94.497,209.455 94.422 C 209.571 94.351,209.665 94.152,209.665 93.980 C 209.665 93.657,205.519 93.545,205.334 93.863 M210.982 93.836 C 211.720 93.894,211.951 93.991,211.869 94.206 C 211.795 94.397,211.891 94.478,212.145 94.440 C 213.306 94.271,212.638 93.681,211.327 93.719 C 210.145 93.752,210.104 93.766,210.982 93.836 M182.808 103.608 C 182.566 103.752,182.200 103.931,181.994 104.005 C 181.365 104.232,181.364 104.328,181.461 133.147 C 181.564 163.726,181.492 162.021,182.706 162.406 C 182.929 162.477,183.112 162.618,183.112 162.718 C 183.112 162.819,183.638 162.901,184.280 162.901 C 185.126 162.901,185.449 162.821,185.449 162.611 C 185.449 162.441,185.727 162.294,186.123 162.255 C 186.493 162.218,186.836 162.069,186.884 161.922 C 187.010 161.537,185.775 161.583,185.449 161.976 C 184.811 162.744,182.900 161.870,182.900 160.810 C 182.900 160.589,182.801 160.346,182.680 160.272 C 182.390 160.093,182.412 161.933,182.353 132.448 C 182.295 102.943,182.201 105.403,183.400 104.810 C 184.597 104.216,191.765 104.417,192.480 105.064 C 192.983 105.519,193.127 159.999,192.629 161.376 C 192.327 162.211,192.593 162.627,193.287 162.407 C 193.715 162.271,193.733 162.131,193.733 159.030 C 193.733 157.102,193.821 155.706,193.951 155.576 C 194.292 155.236,194.421 152.049,194.103 151.846 C 193.914 151.727,193.910 151.678,194.088 151.676 C 194.470 151.671,194.442 135.708,194.059 135.184 C 193.776 134.796,193.852 134.171,194.159 134.361 C 194.252 134.418,194.332 127.870,194.337 119.808 C 194.342 111.747,194.400 105.063,194.467 104.955 C 194.534 104.847,194.300 104.443,193.948 104.057 L 193.307 103.356 188.277 103.351 C 184.658 103.347,183.123 103.419,182.808 103.608 M221.402 103.555 C 221.139 103.671,220.924 103.838,220.924 103.927 C 220.924 104.016,220.733 104.089,220.499 104.089 C 220.214 104.089,220.074 104.231,220.074 104.521 C 220.074 104.758,219.946 105.002,219.789 105.062 C 219.431 105.199,219.473 110.372,219.838 111.054 C 220.185 111.703,220.168 126.853,219.819 127.201 C 219.621 127.400,219.621 127.513,219.819 127.711 C 220.224 128.116,220.180 139.266,219.773 139.422 C 219.423 139.557,219.463 140.246,219.827 140.367 C 220.139 140.471,220.186 156.909,219.874 157.019 C 219.524 157.143,219.449 158.216,219.772 158.484 C 219.987 158.663,220.074 159.223,220.074 160.428 C 220.074 161.943,220.119 162.133,220.499 162.233 C 220.733 162.294,220.924 162.470,220.924 162.625 C 220.924 163.022,221.280 163.194,221.776 163.037 C 222.385 162.844,222.325 161.924,221.670 161.408 L 221.141 160.992 221.139 133.267 L 221.137 105.543 221.784 104.896 C 222.385 104.295,222.505 104.259,223.488 104.390 C 224.069 104.467,225.523 104.517,226.718 104.502 C 230.252 104.456,230.292 104.460,230.836 104.971 L 231.345 105.449 231.286 133.227 C 231.219 164.865,231.456 161.656,229.176 161.695 C 228.165 161.712,227.793 161.796,227.793 162.006 C 227.793 162.165,227.908 162.294,228.050 162.294 C 228.191 162.294,228.429 162.442,228.579 162.622 C 228.768 162.849,228.919 162.882,229.072 162.728 C 229.368 162.432,230.003 162.446,230.104 162.750 C 230.162 162.924,230.502 162.889,231.290 162.627 L 232.395 162.260 232.395 133.175 C 232.395 107.905,232.355 104.089,232.087 104.089 C 231.918 104.089,231.685 103.922,231.571 103.717 C 231.331 103.289,222.336 103.145,221.402 103.555 M196.755 126.553 L 196.814 136.697 199.283 136.756 C 201.649 136.814,201.758 136.797,201.871 136.363 C 201.936 136.114,202.081 135.967,202.192 136.036 C 202.694 136.346,202.647 133.266,202.145 132.929 C 201.988 132.824,202.004 132.772,202.195 132.770 C 202.408 132.768,202.452 132.498,202.371 131.686 C 202.158 129.533,201.895 130.229,201.723 133.399 C 201.592 135.826,201.478 135.953,199.441 135.953 C 197.535 135.953,197.662 136.705,197.742 125.916 L 197.812 116.410 197.254 116.410 L 196.696 116.410 196.755 126.553 M203.998 116.750 C 203.927 116.937,203.963 117.152,204.080 117.228 C 204.196 117.304,204.385 117.653,204.500 118.003 C 204.861 119.106,205.448 118.967,205.387 117.794 C 205.324 116.581,204.346 115.845,203.998 116.750 M209.216 117.252 C 209.173 118.610,209.058 119.163,208.722 119.643 C 208.235 120.338,208.279 121.508,208.793 121.508 C 209.328 121.508,209.471 121.062,209.312 119.898 C 209.193 119.036,209.227 118.923,209.635 118.816 C 209.935 118.738,210.090 118.529,210.090 118.206 C 210.090 117.936,210.243 117.562,210.430 117.376 C 210.931 116.874,210.647 116.393,209.883 116.451 C 209.304 116.496,209.238 116.574,209.216 117.252 M216.892 125.885 C 216.906 136.618,217.021 135.953,215.149 135.953 C 213.442 135.953,213.149 135.759,212.991 134.527 C 212.774 132.834,212.814 124.886,213.046 123.553 C 213.306 122.055,212.827 120.770,212.534 122.181 C 212.390 122.879,212.105 123.884,211.460 125.975 C 211.279 126.562,211.073 127.537,211.001 128.141 C 210.929 128.746,210.744 129.484,210.588 129.782 C 210.433 130.080,210.305 130.757,210.304 131.286 C 210.303 131.815,210.173 132.436,210.014 132.666 C 209.856 132.897,209.676 133.543,209.615 134.103 C 209.447 135.636,209.047 135.953,207.282 135.953 C 205.307 135.953,205.075 135.799,204.896 134.366 C 204.815 133.720,204.674 133.192,204.582 133.192 C 204.491 133.192,204.353 132.513,204.275 131.682 C 204.198 130.852,203.993 129.971,203.820 129.723 C 203.637 129.462,203.505 128.798,203.505 128.142 C 203.505 127.519,203.375 126.752,203.216 126.437 C 203.057 126.121,202.869 125.345,202.797 124.711 C 202.725 124.077,202.568 123.461,202.449 123.341 C 202.329 123.221,202.230 122.911,202.230 122.651 C 202.230 122.063,202.025 121.508,201.808 121.508 C 201.487 121.508,201.413 122.412,201.629 123.705 C 201.748 124.424,201.844 126.050,201.842 127.317 C 201.838 129.112,202.012 130.197,202.143 129.191 C 202.153 129.113,202.235 128.881,202.326 128.674 C 202.417 128.468,202.446 128.061,202.390 127.771 C 202.335 127.481,202.372 127.244,202.472 127.244 C 202.573 127.244,202.657 127.841,202.658 128.571 C 202.662 130.187,202.845 131.020,203.106 130.607 C 203.223 130.424,203.293 130.623,203.306 131.174 C 203.333 132.377,203.441 132.830,203.759 133.080 C 203.911 133.200,204.046 133.633,204.059 134.041 C 204.099 135.363,204.228 135.941,204.507 136.048 C 204.657 136.105,204.780 136.299,204.780 136.478 C 204.780 136.750,205.161 136.803,207.126 136.803 C 210.124 136.803,210.515 136.513,210.515 134.294 C 210.515 133.532,210.578 132.972,210.655 133.049 C 210.924 133.317,211.342 132.403,211.392 131.441 C 211.427 130.757,211.522 130.504,211.714 130.577 C 211.918 130.656,212.005 130.217,212.064 128.803 C 212.108 127.770,212.142 128.921,212.141 131.361 C 212.138 135.272,212.180 135.828,212.495 136.058 C 212.691 136.201,212.852 136.428,212.852 136.561 C 212.852 136.728,213.601 136.803,215.268 136.803 L 217.685 136.803 217.817 136.139 C 217.890 135.774,217.950 131.244,217.950 126.072 C 217.950 116.171,217.972 116.410,217.079 116.410 C 216.959 116.410,216.885 120.135,216.892 125.885 M205.332 120.090 C 205.162 120.995,205.323 121.434,205.878 121.579 C 206.322 121.695,206.339 121.466,206.002 119.927 C 205.849 119.233,205.475 119.324,205.332 120.090 M205.954 122.765 C 205.815 123.201,205.928 123.842,206.396 125.286 C 206.559 125.787,206.691 126.655,206.691 127.216 C 206.691 128.374,206.769 128.514,207.326 128.368 C 207.643 128.285,207.755 127.981,207.872 126.880 C 208.025 125.456,207.839 125.018,207.189 125.268 C 206.944 125.362,206.730 123.461,206.879 122.517 C 206.935 122.158,206.073 122.389,205.954 122.765 M207.754 123.739 C 207.754 125.341,208.268 125.741,208.505 124.323 C 208.578 123.885,208.665 123.431,208.698 123.314 C 208.798 122.962,208.397 122.358,208.065 122.358 C 207.823 122.358,207.754 122.668,207.754 123.739 M206.626 144.546 C 206.423 144.749,205.763 144.873,204.682 144.911 C 203.367 144.957,203.006 145.042,202.843 145.346 C 202.712 145.591,202.395 145.725,201.947 145.725 C 201.565 145.725,201.139 145.840,200.998 145.980 C 200.858 146.120,200.743 146.163,200.743 146.075 C 200.743 145.987,200.505 146.173,200.212 146.488 C 199.920 146.804,199.681 147.227,199.681 147.429 C 199.681 147.632,199.537 147.917,199.360 148.064 C 199.098 148.281,199.088 148.392,199.307 148.662 C 199.472 148.865,199.482 148.937,199.332 148.847 C 198.779 148.516,198.734 153.041,199.287 153.455 C 199.460 153.585,199.664 153.858,199.741 154.063 C 199.818 154.267,200.027 154.434,200.206 154.434 C 200.385 154.434,200.531 154.524,200.531 154.633 C 200.531 154.741,200.722 154.891,200.956 154.965 C 201.190 155.040,201.381 155.237,201.381 155.405 C 201.381 155.572,201.557 155.709,201.773 155.709 C 201.989 155.709,202.386 155.900,202.655 156.134 C 203.008 156.439,203.450 156.559,204.230 156.559 C 205.085 156.559,205.371 156.649,205.580 156.984 C 205.780 157.303,206.075 157.408,206.777 157.408 C 207.409 157.408,207.747 157.511,207.830 157.727 C 207.902 157.913,208.220 158.046,208.597 158.046 C 209.099 158.046,209.241 158.139,209.241 158.471 C 209.241 158.721,209.099 158.895,208.896 158.895 C 208.631 158.895,208.606 158.962,208.789 159.182 C 208.984 159.417,208.760 159.476,207.540 159.512 C 206.320 159.547,206.054 159.496,206.054 159.225 C 206.054 159.034,205.871 158.895,205.617 158.895 C 205.376 158.895,205.235 158.806,205.303 158.696 C 205.370 158.586,205.297 158.419,205.140 158.324 C 204.982 158.229,204.792 157.985,204.717 157.780 C 204.529 157.268,203.930 157.308,203.930 157.833 C 203.930 158.069,204.072 158.258,204.249 158.258 C 204.467 158.258,204.567 158.477,204.567 158.954 C 204.567 160.934,208.480 161.692,209.818 159.972 C 210.355 159.282,210.033 157.196,209.389 157.196 C 209.246 157.196,208.771 157.005,208.335 156.771 C 207.899 156.537,207.215 156.346,206.814 156.346 C 206.413 156.346,205.941 156.203,205.766 156.028 C 205.591 155.852,205.178 155.706,204.848 155.702 C 202.776 155.679,199.894 152.943,199.894 150.998 C 199.894 149.167,200.556 147.866,201.856 147.139 C 202.413 146.829,202.868 146.442,202.868 146.280 C 202.868 145.893,204.124 145.664,205.287 145.839 C 205.973 145.942,206.282 145.892,206.536 145.638 C 206.938 145.236,207.894 145.189,208.019 145.566 C 208.078 145.743,208.594 145.833,209.579 145.836 L 211.051 145.840 212.382 147.150 C 214.173 148.915,214.596 149.893,213.829 150.505 C 213.525 150.747,213.277 151.061,213.277 151.203 C 213.277 151.587,214.880 151.526,215.280 151.127 C 215.692 150.714,215.755 149.014,215.348 149.258 C 215.167 149.367,215.176 149.303,215.374 149.058 C 215.622 148.753,215.620 148.699,215.365 148.699 C 215.199 148.699,214.971 148.388,214.858 148.008 C 214.745 147.629,214.535 147.342,214.390 147.371 C 214.245 147.400,214.126 147.281,214.126 147.106 C 214.126 146.930,214.007 146.786,213.861 146.784 C 213.684 146.782,213.702 146.712,213.914 146.575 C 214.172 146.408,214.141 146.368,213.755 146.365 C 213.487 146.364,213.300 146.245,213.330 146.097 C 213.362 145.935,213.095 145.804,212.648 145.761 C 212.243 145.723,211.794 145.522,211.649 145.316 C 211.445 145.023,211.043 144.930,209.838 144.895 C 208.844 144.866,208.169 144.740,207.952 144.544 C 207.520 144.153,207.018 144.154,206.626 144.546 M205.045 148.958 C 204.674 149.137,204.567 149.369,204.567 149.992 C 204.567 150.639,204.659 150.823,205.045 150.940 C 205.308 151.020,205.684 151.227,205.881 151.399 C 206.123 151.612,206.447 151.667,206.890 151.570 C 207.679 151.396,207.727 151.096,207.010 150.823 C 206.718 150.712,206.479 150.523,206.479 150.404 C 206.479 150.284,206.281 150.186,206.039 150.186 C 205.627 150.186,205.622 150.163,205.955 149.830 C 206.242 149.543,206.389 149.523,206.711 149.724 C 206.931 149.861,207.399 149.973,207.751 149.973 C 208.320 149.973,208.391 150.044,208.391 150.611 C 208.391 150.961,208.490 151.248,208.611 151.248 C 208.759 151.248,208.762 151.376,208.621 151.640 C 208.336 152.172,208.717 152.523,209.579 152.523 C 209.986 152.523,210.306 152.650,210.380 152.841 C 210.447 153.016,210.751 153.160,211.055 153.160 C 212.380 153.160,214.237 154.787,214.754 156.399 C 215.177 157.722,215.613 157.425,215.613 155.815 C 215.613 154.729,215.545 154.434,215.295 154.434 C 215.119 154.434,214.976 154.291,214.976 154.116 C 214.976 153.941,214.885 153.797,214.774 153.797 C 214.663 153.797,214.247 153.463,213.850 153.054 C 213.179 152.363,213.035 152.310,211.821 152.310 C 210.691 152.310,210.515 152.257,210.515 151.916 C 210.515 151.700,210.276 151.265,209.984 150.949 C 209.692 150.634,209.453 150.300,209.453 150.207 C 209.453 149.161,206.412 148.299,205.045 148.958 M211.577 151.650 C 211.577 151.996,212.179 152.078,212.437 151.766 C 212.648 151.513,212.595 151.460,212.134 151.460 C 211.828 151.460,211.577 151.546,211.577 151.650 M214.604 160.025 C 214.341 160.411,214.126 160.930,214.126 161.177 C 214.126 161.696,213.602 162.294,213.147 162.294 C 212.710 162.294,211.577 163.166,211.577 163.503 C 211.577 163.890,212.624 163.855,212.775 163.463 C 212.842 163.287,213.102 163.141,213.353 163.137 C 214.021 163.127,214.976 162.200,214.976 161.561 C 214.976 161.221,215.095 161.020,215.295 161.020 C 215.525 161.020,215.613 160.784,215.613 160.170 C 215.613 159.118,215.257 159.067,214.604 160.025 M198.866 160.375 C 198.901 161.251,199.055 161.657,199.352 161.657 C 199.506 161.657,199.684 161.858,199.748 162.103 C 199.813 162.349,199.956 162.493,200.068 162.424 C 200.179 162.355,200.320 162.489,200.381 162.721 C 200.442 162.954,200.644 163.144,200.830 163.144 C 201.016 163.144,201.168 163.287,201.168 163.463 C 201.168 163.675,201.381 163.781,201.806 163.781 C 202.784 163.781,202.240 162.586,201.017 162.049 C 200.769 161.940,199.974 160.757,199.818 160.264 C 199.610 159.612,198.839 159.701,198.866 160.375 M202.911 164.073 C 203.061 164.234,203.304 164.319,203.451 164.263 C 203.597 164.207,203.717 164.266,203.717 164.396 C 203.717 164.533,204.116 164.631,204.673 164.631 C 205.488 164.631,205.629 164.568,205.629 164.206 C 205.629 163.821,205.488 163.781,204.134 163.781 C 202.875 163.781,202.682 163.827,202.911 164.073 M208.816 164.218 C 208.816 164.601,208.928 164.647,209.719 164.590 C 210.215 164.554,210.590 164.433,210.553 164.321 C 210.515 164.208,210.658 164.048,210.871 163.964 C 211.102 163.873,210.765 163.805,210.037 163.796 C 208.941 163.783,208.816 163.826,208.816 164.218 M212.351 195.751 C 212.084 196.018,211.137 196.070,206.520 196.070 C 200.328 196.070,200.557 196.011,200.372 197.660 C 200.282 198.456,200.330 198.635,200.663 198.756 C 201.449 199.039,201.806 199.630,201.806 200.648 C 201.806 201.454,201.883 201.653,202.230 201.744 C 202.582 201.836,202.655 202.034,202.655 202.893 C 202.655 203.673,202.734 203.930,202.974 203.930 C 203.149 203.930,203.293 204.109,203.293 204.329 C 203.293 204.548,203.424 204.837,203.585 204.970 C 203.745 205.103,203.938 205.593,204.012 206.058 C 204.100 206.605,204.259 206.904,204.463 206.904 C 204.689 206.904,204.780 207.140,204.780 207.728 C 204.780 208.201,204.915 208.664,205.098 208.816 C 205.273 208.961,205.417 209.252,205.417 209.462 C 205.417 210.056,205.648 210.515,205.948 210.515 C 206.098 210.515,206.276 210.659,206.343 210.834 C 206.424 211.045,206.758 211.152,207.329 211.152 C 207.900 211.152,208.233 211.045,208.314 210.834 C 208.381 210.659,208.569 210.515,208.732 210.515 C 208.895 210.515,209.028 210.324,209.028 210.090 C 209.028 209.856,209.170 209.665,209.344 209.665 C 209.550 209.665,209.709 209.362,209.799 208.798 C 209.876 208.320,210.068 207.880,210.227 207.819 C 210.385 207.758,210.515 207.407,210.515 207.038 C 210.515 206.599,210.661 206.278,210.940 206.103 C 211.182 205.952,211.365 205.608,211.365 205.302 C 211.365 205.007,211.508 204.711,211.683 204.644 C 211.865 204.574,212.002 204.257,212.002 203.907 C 212.002 203.569,212.193 203.101,212.427 202.868 C 212.661 202.634,212.852 202.201,212.852 201.905 C 212.852 201.609,212.995 201.312,213.170 201.245 C 213.368 201.169,213.489 200.846,213.489 200.395 C 213.489 199.945,213.610 199.622,213.808 199.546 C 213.983 199.479,214.126 199.290,214.126 199.128 C 214.126 198.965,214.318 198.832,214.551 198.832 C 214.919 198.832,214.976 198.690,214.976 197.785 C 214.976 196.657,214.607 196.070,213.899 196.070 C 213.673 196.070,213.489 195.969,213.489 195.845 C 213.489 195.721,213.394 195.679,213.277 195.751 C 213.160 195.824,213.064 195.782,213.064 195.658 C 213.064 195.335,212.722 195.380,212.351 195.751 M212.981 197.669 C 213.299 198.154,213.301 198.240,213.003 198.572 C 212.821 198.773,212.605 199.209,212.522 199.541 C 212.439 199.873,212.148 200.542,211.874 201.028 C 210.582 203.325,210.303 203.969,210.303 204.654 C 210.303 205.060,210.202 205.454,210.078 205.531 C 209.842 205.677,208.816 207.796,208.816 208.139 C 208.816 208.249,208.678 208.453,208.511 208.592 C 208.343 208.731,208.144 209.124,208.070 209.465 C 207.812 210.639,206.867 210.316,206.570 208.953 C 206.490 208.585,206.294 208.096,206.133 207.866 C 205.973 207.635,205.842 207.295,205.842 207.109 C 205.842 206.924,205.507 206.093,205.098 205.263 C 204.689 204.433,204.355 203.597,204.355 203.406 C 204.355 203.215,204.147 202.657,203.893 202.166 C 203.071 200.581,202.919 200.224,202.770 199.524 C 202.689 199.146,202.534 198.782,202.427 198.715 C 202.135 198.535,202.189 197.397,202.496 197.273 C 202.642 197.214,204.982 197.158,207.696 197.149 L 212.630 197.132 212.981 197.669 " stroke="none" fill="#739fc3" fill-rule="evenodd"></path><path id="path3" d="M199.732 61.507 C 198.805 62.156,198.749 64.377,199.637 65.265 C 200.014 65.642,200.313 65.690,202.070 65.657 C 204.256 65.617,205.125 65.981,204.294 66.589 C 203.909 66.870,203.719 79.896,204.092 80.404 C 204.354 80.759,210.515 80.684,210.515 80.325 C 210.515 80.090,210.453 80.084,210.196 80.297 C 209.936 80.514,209.878 80.499,209.878 80.217 C 209.878 80.028,210.021 79.873,210.196 79.873 C 210.695 79.873,210.601 78.882,210.090 78.749 C 209.857 78.688,209.665 78.524,209.665 78.386 C 209.665 78.247,209.857 78.083,210.090 78.022 C 210.595 77.890,210.666 77.358,210.174 77.400 C 209.868 77.427,209.832 76.863,209.828 72.069 C 209.823 65.291,209.689 65.603,212.581 65.657 C 214.253 65.688,214.669 65.633,214.876 65.349 C 215.015 65.159,215.238 65.003,215.371 65.003 C 215.532 65.003,215.613 64.444,215.613 63.346 L 215.613 61.689 214.908 61.434 C 213.746 61.014,200.344 61.079,199.732 61.507 M200.295 89.991 C 199.859 90.517,199.868 105.897,200.304 106.716 C 200.747 107.546,201.094 107.586,207.833 107.577 C 214.887 107.568,214.551 107.668,214.551 105.569 C 214.551 103.657,214.451 103.613,209.934 103.556 C 207.858 103.529,206.001 103.590,205.806 103.690 C 205.339 103.931,205.228 103.600,205.362 102.371 C 205.423 101.812,205.360 101.194,205.215 100.923 C 204.912 100.356,205.270 99.769,205.819 99.933 C 206.537 100.148,211.935 100.252,212.724 100.066 C 213.753 99.824,213.907 99.585,213.911 98.227 C 213.916 96.497,213.826 96.462,209.229 96.394 L 205.311 96.336 205.311 95.061 L 205.311 93.787 209.659 93.746 C 213.526 93.709,214.038 93.664,214.280 93.333 C 214.628 92.857,214.640 90.243,214.296 89.899 C 213.853 89.456,200.667 89.543,200.295 89.991 M197.726 125.704 C 197.620 136.636,197.507 135.953,199.423 135.953 C 201.823 135.953,201.699 136.291,201.699 129.757 C 201.699 126.681,201.652 123.622,201.593 122.960 C 201.535 122.298,201.564 121.679,201.658 121.585 C 201.894 121.349,202.223 121.926,202.227 122.581 C 202.229 122.879,202.329 123.221,202.449 123.341 C 202.568 123.461,202.725 124.077,202.797 124.711 C 202.869 125.345,203.057 126.121,203.216 126.437 C 203.375 126.752,203.505 127.519,203.505 128.142 C 203.505 128.798,203.637 129.462,203.820 129.723 C 203.993 129.971,204.198 130.852,204.275 131.682 C 204.353 132.513,204.491 133.192,204.582 133.192 C 204.674 133.192,204.815 133.720,204.896 134.366 C 205.075 135.799,205.307 135.953,207.282 135.953 C 209.047 135.953,209.447 135.636,209.615 134.103 C 209.676 133.543,209.856 132.897,210.014 132.666 C 210.173 132.436,210.303 131.815,210.304 131.286 C 210.305 130.757,210.433 130.080,210.588 129.782 C 210.744 129.484,210.929 128.746,211.001 128.141 C 211.073 127.537,211.279 126.562,211.460 125.975 C 212.105 123.884,212.390 122.879,212.534 122.181 C 212.844 120.685,213.293 122.070,213.036 123.726 C 212.626 126.357,212.877 135.291,213.370 135.652 C 213.894 136.035,216.323 136.061,216.629 135.688 C 216.942 135.305,216.939 135.424,216.912 125.491 L 216.888 116.410 215.613 116.410 C 214.437 116.410,214.338 116.447,214.325 116.888 L 214.312 117.366 214.120 116.888 C 213.943 116.448,213.792 116.410,212.228 116.410 C 210.818 116.410,210.549 116.463,210.649 116.723 C 210.715 116.895,210.616 117.189,210.430 117.376 C 210.243 117.562,210.090 117.936,210.090 118.206 C 210.090 118.529,209.935 118.738,209.635 118.816 C 209.227 118.923,209.193 119.036,209.312 119.898 C 209.473 121.076,209.327 121.508,208.769 121.508 C 208.402 121.508,208.362 121.604,208.479 122.199 C 208.741 123.522,208.543 125.118,208.116 125.121 C 207.944 125.123,207.848 125.617,207.823 126.627 C 207.783 128.306,207.806 128.238,207.223 128.339 C 206.841 128.405,206.784 128.260,206.663 126.904 C 206.589 126.074,206.417 125.188,206.281 124.934 C 205.989 124.389,205.917 122.877,206.151 122.201 C 206.276 121.838,206.221 121.691,205.919 121.579 C 205.305 121.352,205.206 121.063,205.342 119.893 C 205.454 118.929,205.421 118.797,205.040 118.698 C 204.775 118.628,204.557 118.333,204.467 117.923 C 204.387 117.558,204.222 117.260,204.101 117.260 C 203.979 117.260,203.930 117.069,203.991 116.835 C 204.093 116.445,203.998 116.410,202.848 116.410 C 201.735 116.410,201.593 116.458,201.593 116.835 C 201.593 117.126,201.452 117.260,201.144 117.260 C 200.799 117.260,200.720 117.161,200.805 116.835 C 200.909 116.439,200.812 116.410,199.366 116.410 L 197.816 116.410 197.726 125.704 M206.505 145.647 C 206.284 145.897,205.988 145.944,205.294 145.840 C 204.125 145.664,202.868 145.892,202.868 146.280 C 202.868 146.442,202.413 146.829,201.856 147.139 C 200.556 147.866,199.894 149.167,199.894 150.998 C 199.894 152.943,202.776 155.679,204.848 155.702 C 205.178 155.706,205.591 155.852,205.766 156.028 C 205.941 156.203,206.413 156.346,206.814 156.346 C 207.215 156.346,207.899 156.537,208.335 156.771 C 208.771 157.005,209.246 157.196,209.389 157.196 C 210.033 157.196,210.355 159.282,209.818 159.972 C 208.480 161.692,204.567 160.934,204.567 158.954 C 204.567 158.477,204.467 158.258,204.249 158.258 C 204.070 158.258,203.930 158.069,203.930 157.827 C 203.930 157.414,203.821 157.398,201.434 157.455 L 198.938 157.515 198.938 158.683 C 198.938 159.580,199.012 159.851,199.257 159.851 C 199.432 159.851,199.738 160.138,199.936 160.489 C 200.134 160.839,200.405 161.317,200.537 161.551 C 200.669 161.784,201.080 162.168,201.451 162.402 C 201.821 162.637,202.219 163.043,202.334 163.305 C 202.523 163.735,202.692 163.781,204.086 163.781 C 205.488 163.781,205.629 163.820,205.629 164.206 C 205.629 164.593,205.771 164.631,207.223 164.631 C 208.674 164.631,208.816 164.593,208.816 164.206 C 208.816 163.825,208.957 163.781,210.196 163.781 C 211.194 163.781,211.577 163.704,211.577 163.503 C 211.577 163.166,212.710 162.294,213.147 162.294 C 213.602 162.294,214.126 161.696,214.126 161.177 C 214.126 160.625,214.983 159.324,215.348 159.322 C 215.525 159.321,215.613 158.965,215.613 158.258 C 215.613 157.481,215.532 157.196,215.311 157.196 C 215.145 157.196,214.894 156.837,214.754 156.399 C 214.237 154.787,212.380 153.160,211.055 153.160 C 210.751 153.160,210.447 153.016,210.380 152.841 C 210.306 152.650,209.986 152.523,209.579 152.523 C 208.796 152.523,208.369 152.189,208.549 151.719 C 208.657 151.439,208.492 151.412,207.386 151.527 C 206.420 151.628,206.036 151.589,205.854 151.370 C 205.721 151.209,205.377 151.018,205.090 150.946 C 204.293 150.746,204.326 149.302,205.136 148.933 C 206.453 148.333,209.453 149.203,209.453 150.185 C 209.453 150.290,209.679 150.620,209.955 150.918 C 210.517 151.525,213.277 151.761,213.277 151.203 C 213.277 151.061,213.525 150.747,213.829 150.505 C 214.596 149.893,214.173 148.915,212.382 147.150 L 211.051 145.840 209.579 145.836 C 208.594 145.833,208.078 145.743,208.019 145.566 C 207.895 145.193,206.857 145.249,206.505 145.647 " stroke="none" fill="#23185b" fill-rule="evenodd"></path><path id="path4" d="M201.009 2.459 C 200.746 2.762,200.531 3.087,200.531 3.181 C 200.531 3.275,200.412 3.347,200.266 3.342 C 199.479 3.313,199.044 3.428,199.044 3.666 C 199.044 3.814,198.853 4.053,198.619 4.199 C 198.379 4.349,198.194 4.695,198.194 4.994 C 198.194 5.323,198.074 5.523,197.876 5.523 C 197.683 5.523,197.557 5.720,197.557 6.021 C 197.557 6.295,197.366 6.692,197.132 6.904 C 196.835 7.173,196.707 7.558,196.707 8.189 C 196.707 8.793,196.603 9.129,196.389 9.211 C 196.135 9.308,196.070 9.763,196.070 11.438 C 196.070 13.050,196.145 13.605,196.389 13.808 C 196.570 13.958,196.707 14.421,196.707 14.879 C 196.707 15.891,196.882 16.357,197.261 16.357 C 197.424 16.357,197.557 16.490,197.557 16.653 C 197.557 16.816,197.700 17.004,197.876 17.071 C 198.051 17.138,198.194 17.325,198.194 17.486 C 198.194 17.647,198.362 17.977,198.566 18.220 C 198.771 18.463,199.173 18.952,199.461 19.308 C 199.748 19.663,200.250 20.013,200.576 20.084 C 200.902 20.156,201.168 20.350,201.168 20.516 C 201.168 20.719,201.411 20.818,201.912 20.818 C 202.431 20.818,202.655 20.914,202.655 21.136 C 202.655 21.359,202.880 21.455,203.399 21.455 C 203.893 21.455,204.142 21.554,204.142 21.751 C 204.142 21.914,204.286 22.102,204.461 22.169 C 205.015 22.382,204.918 26.481,204.355 26.660 C 204.121 26.734,203.930 26.931,203.930 27.099 C 203.930 27.266,203.739 27.403,203.505 27.403 C 203.271 27.403,203.080 27.504,203.080 27.628 C 203.080 27.752,202.985 27.794,202.868 27.722 C 202.751 27.650,202.655 27.739,202.655 27.922 C 202.655 28.104,202.512 28.253,202.337 28.253 C 202.157 28.253,202.018 28.443,202.018 28.690 C 202.018 28.931,201.927 29.071,201.815 29.002 C 201.703 28.933,201.454 29.118,201.261 29.413 C 201.067 29.707,200.824 29.896,200.720 29.832 C 200.616 29.767,200.528 29.840,200.525 29.993 C 200.522 30.146,200.190 30.510,199.788 30.802 C 199.385 31.094,199.053 31.446,199.050 31.584 C 199.047 31.722,198.855 31.895,198.624 31.969 C 198.392 32.042,198.212 32.168,198.224 32.249 C 198.235 32.329,198.233 32.897,198.220 33.510 L 198.194 34.626 197.132 34.626 C 196.052 34.626,196.027 34.640,194.902 35.953 C 194.727 36.158,194.583 36.468,194.583 36.644 C 194.583 36.819,194.392 36.974,194.158 36.989 C 193.925 37.003,193.614 37.027,193.468 37.042 C 193.322 37.057,193.171 37.286,193.134 37.552 C 193.057 38.091,192.224 39.087,191.850 39.087 C 191.718 39.087,191.609 39.233,191.609 39.412 C 191.609 39.591,191.466 39.792,191.290 39.859 C 191.115 39.927,190.972 40.115,190.972 40.278 C 190.972 40.440,190.866 40.574,190.736 40.574 C 190.466 40.574,189.494 41.447,189.489 41.694 C 189.483 41.955,186.908 44.405,186.746 44.305 C 186.665 44.255,186.576 44.516,186.548 44.885 C 186.520 45.255,186.357 45.635,186.185 45.731 C 186.014 45.827,185.874 46.044,185.874 46.213 C 185.874 46.383,185.802 46.510,185.714 46.496 C 185.276 46.427,185.024 46.553,185.024 46.840 C 185.024 47.015,184.881 47.159,184.705 47.159 C 184.530 47.159,184.387 47.291,184.387 47.453 C 184.387 47.614,184.195 47.797,183.962 47.858 C 183.708 47.924,183.537 48.147,183.537 48.413 C 183.537 48.658,183.452 48.858,183.348 48.858 C 183.243 48.858,183.100 49.091,183.028 49.375 C 182.957 49.659,182.708 49.953,182.474 50.027 C 182.241 50.101,182.050 50.298,182.050 50.466 C 182.050 50.633,181.907 50.770,181.731 50.770 C 181.551 50.770,181.413 50.960,181.413 51.207 C 181.413 51.463,181.319 51.587,181.186 51.505 C 181.061 51.428,180.908 51.559,180.846 51.796 C 180.784 52.033,180.600 52.279,180.436 52.342 C 180.272 52.405,180.138 52.603,180.138 52.781 C 180.138 52.965,179.953 53.107,179.713 53.107 C 179.387 53.107,179.288 53.248,179.288 53.719 C 179.288 54.153,179.164 54.364,178.864 54.443 C 178.630 54.504,178.439 54.706,178.439 54.892 C 178.439 55.079,178.295 55.231,178.120 55.231 C 177.945 55.231,177.801 55.321,177.801 55.430 C 177.801 55.540,177.511 55.946,177.156 56.333 C 176.801 56.720,176.458 57.245,176.394 57.499 C 176.329 57.754,176.150 58.010,175.997 58.069 C 175.843 58.128,175.655 58.462,175.578 58.810 C 175.501 59.159,175.301 59.497,175.133 59.561 C 174.965 59.626,174.827 59.825,174.827 60.004 C 174.827 60.183,174.684 60.329,174.509 60.329 C 174.334 60.329,174.190 60.451,174.190 60.601 C 174.190 60.750,173.999 61.036,173.765 61.236 C 173.532 61.436,173.340 61.782,173.340 62.004 C 173.340 62.226,173.197 62.463,173.022 62.530 C 172.836 62.602,172.703 62.920,172.703 63.297 C 172.703 63.799,172.610 63.941,172.278 63.941 C 171.934 63.941,171.853 64.082,171.853 64.684 C 171.853 65.203,171.757 65.428,171.535 65.428 C 171.319 65.428,171.216 65.643,171.216 66.094 C 171.216 66.470,171.062 66.874,170.865 67.019 C 170.631 67.189,170.480 67.696,170.414 68.529 C 170.359 69.218,170.207 69.916,170.075 70.080 C 169.693 70.556,169.684 77.904,170.065 78.684 C 170.231 79.023,170.366 79.756,170.366 80.313 C 170.366 81.524,170.522 81.997,170.920 81.997 C 171.134 81.997,171.216 82.294,171.216 83.066 C 171.216 83.820,171.310 84.170,171.535 84.257 C 171.729 84.331,171.853 84.653,171.853 85.082 C 171.853 85.996,172.039 86.458,172.407 86.458 C 172.570 86.458,172.703 86.601,172.703 86.776 C 172.703 86.952,172.847 87.095,173.022 87.095 C 173.244 87.095,173.340 87.319,173.340 87.839 C 173.340 88.440,173.421 88.582,173.765 88.582 C 174.097 88.582,174.190 88.724,174.190 89.226 C 174.190 89.602,174.322 89.921,174.509 89.992 C 174.684 90.059,174.827 90.213,174.827 90.333 C 174.827 90.599,175.833 91.556,176.113 91.556 C 176.292 91.556,176.418 92.207,176.333 92.690 C 176.316 92.787,176.496 92.918,176.733 92.980 C 176.970 93.042,177.164 93.182,177.164 93.290 C 177.164 93.399,177.475 93.623,177.854 93.788 C 178.279 93.973,178.397 94.092,178.161 94.097 C 177.943 94.102,177.837 94.204,177.917 94.332 C 177.994 94.457,178.191 94.508,178.354 94.445 C 178.760 94.289,179.288 94.516,179.288 94.847 C 179.288 94.996,179.489 95.170,179.735 95.234 C 179.980 95.299,180.122 95.446,180.050 95.563 C 179.978 95.679,180.103 95.832,180.328 95.904 C 180.552 95.975,180.790 96.173,180.855 96.344 C 180.921 96.515,181.086 96.654,181.223 96.654 C 181.360 96.654,181.586 96.810,181.725 97.001 C 181.864 97.191,182.353 97.412,182.811 97.492 C 183.284 97.574,183.620 97.745,183.590 97.889 C 183.557 98.046,183.818 98.141,184.280 98.141 C 184.789 98.141,185.024 98.239,185.024 98.450 C 185.024 98.790,186.298 99.118,186.828 98.915 C 187.296 98.735,187.297 95.380,186.830 95.380 C 186.653 95.380,186.511 95.191,186.511 94.955 C 186.511 94.672,186.369 94.530,186.086 94.530 C 185.756 94.530,185.661 94.388,185.661 93.893 C 185.661 93.542,185.577 93.255,185.474 93.255 C 185.371 93.255,185.021 92.730,184.696 92.087 C 184.371 91.445,183.977 90.919,183.821 90.919 C 183.661 90.919,183.537 90.691,183.537 90.398 C 183.537 90.112,183.410 89.801,183.255 89.708 C 183.101 89.614,182.912 89.371,182.837 89.166 C 182.762 88.962,182.554 88.794,182.375 88.794 C 182.145 88.794,182.050 88.577,182.050 88.051 C 182.050 87.532,181.954 87.307,181.731 87.307 C 181.487 87.307,181.413 87.036,181.413 86.139 C 181.413 85.254,181.310 84.868,180.988 84.546 C 180.443 84.001,180.323 78.386,180.857 78.386 C 181.179 78.386,181.405 77.755,181.410 76.845 C 181.412 76.469,181.526 76.261,181.731 76.261 C 181.954 76.261,182.050 76.037,182.050 75.518 C 182.050 75.003,182.147 74.774,182.364 74.774 C 182.537 74.774,182.896 74.298,183.161 73.716 C 183.426 73.135,183.763 72.657,183.909 72.654 C 184.186 72.650,184.197 72.625,184.278 71.860 C 184.306 71.601,184.628 71.125,184.995 70.804 C 185.361 70.482,185.661 70.138,185.661 70.038 C 185.661 69.939,185.805 69.715,185.980 69.539 C 186.155 69.364,186.298 69.275,186.298 69.340 C 186.298 69.406,186.490 69.296,186.723 69.096 C 186.959 68.894,187.148 68.469,187.148 68.142 C 187.148 67.744,187.258 67.552,187.487 67.552 C 187.673 67.552,187.875 67.361,187.936 67.127 C 187.997 66.893,188.180 66.702,188.341 66.702 C 188.503 66.702,188.635 66.559,188.635 66.383 C 188.635 66.208,188.726 66.065,188.838 66.065 C 189.101 66.065,190.122 65.044,190.122 64.781 C 190.122 64.669,190.242 64.576,190.388 64.574 C 190.712 64.570,191.609 63.653,191.609 63.326 C 191.609 63.197,191.753 63.091,191.928 63.091 C 192.103 63.091,192.246 62.947,192.246 62.772 C 192.246 62.597,192.399 62.454,192.585 62.454 C 192.771 62.454,192.973 62.262,193.035 62.029 C 193.096 61.795,193.278 61.604,193.440 61.604 C 193.601 61.604,193.733 61.460,193.733 61.285 C 193.733 61.110,193.877 60.967,194.053 60.967 C 194.233 60.967,194.575 60.503,194.836 59.904 C 195.091 59.320,195.434 58.842,195.599 58.842 C 195.763 58.842,195.947 58.651,196.009 58.417 C 196.070 58.184,196.252 57.993,196.414 57.993 C 196.575 57.993,196.707 57.849,196.707 57.674 C 196.707 57.499,196.851 57.355,197.026 57.355 C 197.203 57.355,197.345 57.166,197.345 56.930 C 197.345 56.647,197.486 56.506,197.770 56.506 C 198.006 56.506,198.194 56.364,198.194 56.187 C 198.194 56.012,198.338 55.868,198.513 55.868 C 198.688 55.868,198.832 55.720,198.832 55.540 C 198.832 55.201,199.815 54.169,200.137 54.169 C 200.237 54.169,200.319 53.882,200.319 53.532 C 200.319 53.053,200.417 52.894,200.712 52.894 C 201.165 52.894,203.293 50.700,203.293 50.233 C 203.293 50.061,203.436 49.920,203.611 49.920 C 203.787 49.920,203.930 49.788,203.930 49.626 C 203.930 49.465,204.121 49.283,204.355 49.222 C 204.600 49.157,204.780 48.932,204.780 48.688 C 204.780 48.456,204.923 48.211,205.098 48.144 C 205.273 48.077,205.417 47.828,205.417 47.590 C 205.417 47.353,205.549 47.159,205.710 47.159 C 205.871 47.159,206.139 46.953,206.306 46.702 L 206.609 46.246 207.181 46.818 C 207.496 47.133,207.754 47.482,207.754 47.593 C 207.754 47.705,207.897 47.796,208.072 47.796 C 208.247 47.796,208.391 47.939,208.391 48.115 C 208.391 48.290,208.492 48.433,208.616 48.433 C 208.740 48.433,208.779 48.534,208.703 48.657 C 208.625 48.782,208.854 48.990,209.221 49.128 C 209.582 49.265,209.878 49.499,209.878 49.648 C 209.878 49.798,210.021 49.920,210.196 49.920 C 210.372 49.920,210.515 50.073,210.515 50.259 C 210.515 50.445,210.706 50.647,210.940 50.708 C 211.174 50.770,211.365 50.952,211.365 51.113 C 211.365 51.275,211.456 51.407,211.568 51.407 C 211.831 51.407,212.852 52.428,212.852 52.692 C 212.852 52.803,212.942 52.894,213.053 52.894 C 213.346 52.894,214.339 53.857,214.339 54.140 C 214.339 54.273,214.434 54.381,214.551 54.381 C 214.841 54.381,215.734 55.294,215.660 55.515 C 215.628 55.613,215.795 55.743,216.032 55.805 C 216.311 55.878,216.463 56.094,216.463 56.417 C 216.463 56.698,216.648 57.015,216.888 57.143 C 217.122 57.268,217.313 57.510,217.313 57.681 C 217.313 57.853,217.456 57.993,217.631 57.993 C 217.807 57.993,217.950 58.083,217.950 58.194 C 217.950 58.487,218.912 59.480,219.196 59.480 C 219.329 59.480,219.437 59.570,219.437 59.681 C 219.437 59.974,220.399 60.967,220.683 60.967 C 220.816 60.967,220.924 61.110,220.924 61.285 C 220.924 61.460,221.067 61.604,221.243 61.604 C 221.420 61.604,221.561 61.793,221.561 62.029 C 221.561 62.650,221.597 62.712,222.356 63.408 C 222.737 63.758,223.048 64.164,223.048 64.311 C 223.048 64.458,223.168 64.581,223.314 64.585 C 223.733 64.596,224.535 65.354,224.535 65.740 C 224.535 65.934,224.636 66.027,224.762 65.950 C 224.887 65.873,225.041 66.010,225.105 66.256 C 225.172 66.510,225.394 66.702,225.622 66.702 C 225.881 66.702,226.022 66.852,226.022 67.127 C 226.022 67.361,226.142 67.555,226.288 67.560 C 226.434 67.565,226.784 68.043,227.066 68.622 C 227.349 69.202,227.707 69.676,227.863 69.676 C 228.019 69.676,228.147 69.819,228.147 69.995 C 228.147 70.170,228.228 70.313,228.328 70.313 C 228.693 70.313,229.634 71.367,229.634 71.775 C 229.634 72.006,229.777 72.338,229.952 72.513 C 230.127 72.689,230.271 72.935,230.271 73.060 C 230.271 73.185,230.462 73.287,230.696 73.287 C 231.027 73.287,231.121 73.429,231.121 73.931 C 231.121 74.308,231.253 74.626,231.439 74.697 C 231.614 74.765,231.758 74.953,231.758 75.116 C 231.758 75.388,232.026 75.508,232.464 75.431 C 232.560 75.415,232.579 75.499,232.505 75.619 C 232.431 75.738,232.477 75.836,232.608 75.836 C 232.738 75.836,232.786 75.932,232.714 76.049 C 232.642 76.166,232.731 76.261,232.914 76.261 C 233.175 76.261,233.245 76.516,233.245 77.466 C 233.245 78.256,233.358 78.796,233.574 79.034 C 234.062 79.574,234.072 83.984,233.587 84.520 C 233.349 84.782,233.245 85.303,233.245 86.222 C 233.245 87.050,233.165 87.496,233.032 87.414 C 232.831 87.289,232.784 87.381,232.735 87.998 C 232.723 88.144,232.499 88.501,232.236 88.792 C 231.919 89.143,231.758 89.590,231.758 90.120 C 231.758 90.688,231.666 90.919,231.439 90.919 C 231.262 90.919,231.121 91.108,231.121 91.344 C 231.121 91.577,231.049 91.757,230.961 91.743 C 230.451 91.663,230.271 91.836,230.271 92.406 C 230.271 92.831,230.165 93.043,229.952 93.043 C 229.777 93.043,229.634 93.223,229.634 93.443 C 229.634 93.665,229.444 93.893,229.209 93.954 C 228.920 94.030,228.784 94.244,228.784 94.623 C 228.784 94.930,228.640 95.236,228.465 95.303 C 228.290 95.370,228.147 95.558,228.147 95.721 C 228.147 95.884,228.003 96.017,227.828 96.017 C 227.496 96.017,227.487 96.034,227.405 96.818 C 227.377 97.084,227.215 97.466,227.044 97.668 C 226.873 97.870,226.717 98.370,226.696 98.779 C 226.667 99.334,226.711 99.441,226.868 99.203 C 227.048 98.930,227.078 98.938,227.081 99.257 C 227.084 99.554,227.272 99.628,228.023 99.628 C 229.104 99.628,229.683 99.455,229.514 99.181 C 229.449 99.077,229.629 98.991,229.913 98.991 C 230.882 98.991,231.758 98.726,231.758 98.433 C 231.758 98.250,231.997 98.141,232.402 98.141 C 232.778 98.141,233.097 98.009,233.168 97.823 C 233.235 97.647,233.423 97.504,233.586 97.504 C 233.749 97.504,233.882 97.313,233.882 97.079 C 233.882 96.735,234.024 96.654,234.626 96.654 C 235.145 96.654,235.369 96.558,235.369 96.336 C 235.369 96.160,235.506 96.017,235.673 96.017 C 235.841 96.017,236.038 95.826,236.113 95.592 C 236.187 95.358,236.384 95.167,236.552 95.167 C 236.719 95.167,236.856 95.024,236.856 94.849 C 236.856 94.673,236.999 94.530,237.175 94.530 C 237.350 94.530,237.493 94.398,237.493 94.236 C 237.493 94.075,237.685 93.892,237.918 93.831 C 238.152 93.770,238.343 93.568,238.343 93.382 C 238.343 93.195,238.486 93.043,238.662 93.043 C 238.837 93.043,238.980 92.963,238.980 92.865 C 238.980 92.768,239.649 91.987,240.467 91.131 C 241.285 90.275,241.954 89.462,241.954 89.324 C 241.954 89.186,242.146 88.900,242.379 88.688 C 242.613 88.477,242.804 88.139,242.804 87.938 C 242.804 87.737,242.947 87.453,243.123 87.307 C 243.298 87.162,243.441 86.923,243.441 86.776 C 243.441 86.630,243.585 86.391,243.760 86.245 C 243.943 86.093,244.079 85.630,244.079 85.157 C 244.079 84.561,244.168 84.334,244.402 84.334 C 244.581 84.334,244.814 84.104,244.920 83.823 C 245.027 83.542,245.216 83.250,245.340 83.173 C 245.464 83.097,245.566 82.450,245.566 81.735 C 245.566 80.797,245.669 80.323,245.937 80.026 C 246.337 79.585,246.561 71.685,246.168 71.928 C 246.070 71.989,245.990 71.937,245.990 71.813 C 245.990 71.689,246.086 71.588,246.203 71.588 C 246.478 71.588,246.480 70.803,246.205 70.633 C 246.090 70.562,246.046 70.637,246.109 70.799 C 246.171 70.962,246.091 71.204,245.931 71.337 C 245.689 71.537,245.633 71.302,245.598 69.946 C 245.572 68.959,245.456 68.253,245.303 68.158 C 245.165 68.073,244.949 67.590,244.824 67.087 C 244.695 66.568,244.484 66.194,244.338 66.224 C 244.179 66.257,244.079 66.027,244.079 65.633 C 244.079 65.257,243.946 64.939,243.760 64.867 C 243.585 64.800,243.441 64.564,243.441 64.343 C 243.441 64.121,243.302 63.941,243.132 63.941 C 242.947 63.941,242.767 63.642,242.684 63.197 C 242.604 62.771,242.418 62.454,242.249 62.454 C 242.087 62.454,241.954 62.320,241.954 62.158 C 241.954 61.995,241.825 61.812,241.666 61.751 C 241.507 61.690,241.318 61.345,241.246 60.985 C 241.172 60.612,240.982 60.329,240.806 60.329 C 240.635 60.329,240.435 60.137,240.360 59.901 C 240.285 59.666,240.146 59.521,240.051 59.580 C 239.956 59.639,239.829 59.497,239.768 59.265 C 239.707 59.032,239.505 58.842,239.319 58.842 C 239.133 58.842,238.980 58.704,238.980 58.534 C 238.980 58.365,238.832 58.143,238.651 58.042 C 238.471 57.941,238.306 57.635,238.285 57.362 C 238.264 57.087,238.080 56.822,237.871 56.767 C 237.663 56.713,237.493 56.488,237.493 56.268 C 237.493 56.048,237.350 55.868,237.175 55.868 C 236.999 55.868,236.856 55.725,236.856 55.550 C 236.856 55.374,236.753 55.231,236.627 55.231 C 236.353 55.231,234.732 53.581,234.732 53.302 C 234.732 53.195,234.631 53.107,234.507 53.107 C 234.383 53.107,234.341 53.010,234.414 52.893 C 234.487 52.775,234.397 52.622,234.214 52.551 C 234.032 52.481,233.882 52.295,233.882 52.138 C 233.882 51.811,232.904 50.770,232.598 50.770 C 232.486 50.770,232.395 50.627,232.395 50.451 C 232.395 50.276,232.252 50.133,232.076 50.133 C 231.901 50.133,231.758 49.949,231.758 49.725 C 231.758 49.501,231.409 48.999,230.984 48.610 C 229.526 47.277,229.421 47.158,229.421 46.835 C 229.421 46.645,229.158 46.458,228.784 46.383 C 228.248 46.276,228.147 46.156,228.147 45.625 C 228.147 45.180,228.026 44.963,227.734 44.887 C 227.485 44.822,227.295 44.560,227.256 44.229 C 227.206 43.809,227.027 43.636,226.500 43.501 C 226.115 43.401,225.810 43.185,225.810 43.010 C 225.810 42.838,225.666 42.698,225.491 42.698 C 225.281 42.698,225.173 42.488,225.173 42.083 C 225.173 41.458,224.866 41.211,224.093 41.211 C 223.869 41.211,223.686 41.072,223.686 40.903 C 223.686 40.734,223.448 40.328,223.158 40.000 C 222.337 39.075,222.199 38.900,222.199 38.788 C 222.199 38.569,221.183 37.600,220.953 37.600 C 220.820 37.600,220.712 37.456,220.712 37.281 C 220.712 37.106,220.568 36.962,220.393 36.962 C 220.216 36.962,220.074 36.773,220.074 36.537 C 220.074 36.304,219.941 36.113,219.778 36.113 C 219.616 36.113,219.427 35.969,219.360 35.794 C 219.293 35.619,219.092 35.475,218.913 35.475 C 218.729 35.475,218.587 35.290,218.587 35.050 C 218.587 34.763,218.446 34.626,218.150 34.626 C 217.909 34.626,217.772 34.530,217.844 34.413 C 217.916 34.296,217.877 34.201,217.757 34.201 C 217.637 34.201,217.591 34.065,217.655 33.898 C 217.785 33.558,217.001 33.044,216.666 33.251 C 216.549 33.323,216.479 33.260,216.511 33.109 C 216.543 32.959,216.354 32.738,216.091 32.618 C 215.828 32.498,215.613 32.280,215.613 32.132 C 215.613 31.985,215.470 31.864,215.295 31.864 C 215.118 31.864,214.976 31.675,214.976 31.439 C 214.976 31.199,214.834 31.014,214.651 31.014 C 214.472 31.014,214.270 30.871,214.203 30.696 C 214.136 30.520,213.948 30.377,213.785 30.377 C 213.622 30.377,213.489 30.186,213.489 29.952 C 213.489 29.719,213.356 29.527,213.193 29.527 C 213.030 29.527,212.842 29.384,212.775 29.209 C 212.708 29.033,212.517 28.890,212.352 28.890 C 212.187 28.890,211.998 28.686,211.933 28.438 C 211.850 28.121,211.709 28.026,211.460 28.121 C 211.206 28.219,211.139 28.169,211.224 27.947 C 211.297 27.758,211.181 27.586,210.929 27.506 C 210.701 27.434,210.515 27.238,210.515 27.070 C 210.515 26.903,210.372 26.766,210.196 26.766 C 210.003 26.766,209.878 26.568,209.878 26.263 C 209.878 25.987,209.687 25.518,209.453 25.221 C 209.146 24.830,209.028 24.359,209.028 23.518 L 209.028 22.356 210.331 22.262 C 211.223 22.197,211.717 22.055,211.895 21.811 C 212.043 21.609,212.443 21.455,212.822 21.455 C 213.273 21.455,213.489 21.352,213.489 21.136 C 213.489 20.931,213.697 20.817,214.073 20.814 C 214.653 20.811,215.613 20.032,215.613 19.566 C 215.613 19.437,215.805 19.331,216.038 19.331 C 216.321 19.331,216.463 19.189,216.463 18.906 C 216.463 18.670,216.605 18.481,216.782 18.481 C 216.957 18.481,217.100 18.293,217.100 18.063 C 217.100 17.771,217.201 17.683,217.432 17.772 C 217.653 17.857,217.802 17.749,217.881 17.447 C 217.946 17.198,218.132 16.994,218.293 16.994 C 218.494 16.994,218.587 16.728,218.587 16.157 C 218.587 15.697,218.683 15.261,218.800 15.189 C 219.093 15.007,219.067 14.159,218.757 13.850 C 218.398 13.491,216.981 13.533,216.600 13.914 C 216.424 14.089,216.139 14.233,215.965 14.233 C 215.792 14.233,215.322 14.551,214.920 14.941 C 214.519 15.331,214.033 15.710,213.840 15.784 C 213.647 15.858,213.489 16.007,213.489 16.114 C 213.489 16.222,213.150 16.373,212.734 16.451 C 212.319 16.529,211.927 16.731,211.862 16.900 C 211.784 17.103,211.429 17.207,210.811 17.207 C 210.298 17.207,209.878 17.302,209.878 17.419 C 209.878 17.536,209.687 17.631,209.453 17.631 C 209.219 17.631,209.028 17.536,209.028 17.419 C 209.028 17.302,208.513 17.207,207.883 17.207 C 207.040 17.207,206.703 17.119,206.609 16.874 C 206.539 16.692,206.395 16.596,206.290 16.661 C 206.184 16.727,205.872 16.543,205.598 16.254 C 205.305 15.945,204.856 15.725,204.514 15.723 C 204.158 15.721,203.930 15.604,203.930 15.424 C 203.930 15.261,203.787 15.073,203.611 15.005 C 203.436 14.938,203.293 14.737,203.293 14.558 C 203.293 14.379,203.157 14.233,202.991 14.233 C 202.825 14.233,202.626 13.946,202.549 13.597 C 202.473 13.247,202.282 12.888,202.126 12.800 C 201.970 12.712,201.810 12.353,201.771 12.002 C 201.730 11.633,201.588 11.387,201.434 11.418 C 201.008 11.503,201.065 7.360,201.495 7.004 C 201.674 6.855,201.807 6.580,201.789 6.393 C 201.725 5.719,201.812 5.523,202.177 5.520 C 202.495 5.517,202.503 5.487,202.230 5.311 C 201.952 5.131,201.954 5.104,202.251 5.102 C 202.486 5.099,202.579 4.920,202.556 4.514 C 202.537 4.193,202.663 3.824,202.836 3.695 C 203.221 3.406,203.004 2.723,202.579 2.886 C 202.411 2.950,202.201 2.886,202.113 2.743 C 202.006 2.570,202.041 2.538,202.218 2.648 C 202.401 2.761,202.460 2.689,202.408 2.415 C 202.293 1.812,201.550 1.836,201.009 2.459 M199.828 6.957 C 199.768 7.395,199.602 8.188,199.461 8.720 C 199.231 9.586,199.251 9.778,199.655 10.570 C 199.903 11.056,200.106 11.676,200.106 11.946 C 200.106 12.217,200.237 12.627,200.398 12.858 C 200.558 13.088,200.756 13.585,200.838 13.961 C 200.986 14.639,202.541 16.249,203.612 16.834 C 205.640 17.940,206.273 18.216,207.090 18.346 C 207.601 18.428,208.220 18.635,208.465 18.807 C 209.069 19.229,210.024 19.187,211.046 18.694 C 211.514 18.468,212.271 18.280,212.729 18.276 C 213.187 18.272,213.731 18.116,213.937 17.929 C 214.143 17.743,214.415 17.653,214.540 17.731 C 215.306 18.204,212.033 20.394,210.121 20.688 C 207.786 21.047,207.567 21.514,207.976 25.279 L 208.195 27.297 209.175 28.200 C 209.714 28.696,210.224 29.102,210.309 29.102 C 210.394 29.102,211.228 29.843,212.162 30.749 C 217.641 36.055,219.033 37.478,220.367 39.131 C 220.811 39.682,221.339 40.184,221.540 40.248 C 221.741 40.312,222.068 40.722,222.266 41.159 C 222.469 41.607,223.315 42.557,224.204 43.335 C 225.072 44.095,225.981 45.107,226.224 45.586 C 226.467 46.065,226.903 46.564,227.194 46.697 C 227.484 46.829,227.722 47.037,227.722 47.160 C 227.722 47.282,228.287 47.990,228.978 48.732 C 229.669 49.475,230.378 50.356,230.554 50.692 C 230.730 51.027,231.496 51.825,232.255 52.466 C 233.115 53.191,233.678 53.841,233.748 54.188 C 233.857 54.736,235.186 56.293,235.544 56.293 C 235.644 56.293,235.827 56.508,235.951 56.771 C 236.197 57.295,237.767 59.215,238.771 60.223 C 239.120 60.574,239.406 60.956,239.407 61.073 C 239.408 61.419,241.213 63.934,241.709 64.281 C 241.961 64.458,242.168 64.716,242.169 64.855 C 242.170 64.995,242.545 65.887,243.003 66.839 C 243.461 67.790,243.951 68.985,244.093 69.494 C 244.235 70.003,244.576 70.630,244.852 70.887 C 245.480 71.473,245.656 79.286,245.046 79.520 C 244.877 79.585,244.596 80.097,244.422 80.658 C 243.899 82.341,242.934 84.598,242.352 85.502 C 242.050 85.969,241.731 86.591,241.642 86.883 C 241.553 87.175,241.316 87.605,241.115 87.839 C 240.566 88.475,239.405 90.276,239.405 90.490 C 239.405 90.593,239.233 90.732,239.022 90.799 C 238.811 90.866,237.863 91.709,236.915 92.673 C 234.255 95.376,232.874 96.529,231.758 96.978 C 231.583 97.049,231.045 97.307,230.564 97.551 C 229.166 98.262,228.426 97.601,229.489 96.591 C 229.984 96.121,231.333 94.237,231.333 94.016 C 231.333 93.951,231.811 93.064,232.395 92.045 C 232.979 91.027,233.457 89.939,233.457 89.629 C 233.457 89.318,233.637 88.836,233.856 88.557 C 234.480 87.763,235.416 83.501,235.436 81.360 C 235.454 79.496,234.423 76.161,233.749 75.903 C 233.572 75.835,233.457 75.471,233.457 74.979 C 233.457 74.372,233.230 73.836,232.554 72.852 C 232.058 72.129,231.502 71.314,231.319 71.040 C 231.137 70.766,230.754 70.315,230.470 70.038 C 229.577 69.170,227.722 66.952,227.722 66.752 C 227.722 66.647,227.029 65.890,226.182 65.069 C 225.335 64.249,224.355 63.208,224.004 62.758 C 223.116 61.617,222.065 60.433,220.801 59.150 C 220.208 58.547,219.499 57.682,219.225 57.227 C 218.691 56.338,211.847 49.430,210.869 48.793 C 210.545 48.581,210.221 48.247,210.150 48.049 C 209.987 47.598,207.741 45.369,207.109 45.031 C 206.495 44.702,205.759 45.078,205.088 46.066 C 204.819 46.461,204.379 46.895,204.110 47.029 C 203.841 47.163,203.422 47.627,203.179 48.059 C 202.937 48.492,201.811 49.803,200.679 50.972 C 199.546 52.142,198.619 53.242,198.619 53.418 C 198.619 53.595,197.331 55.027,195.757 56.602 C 194.183 58.177,192.839 59.691,192.770 59.966 C 192.701 60.241,192.385 60.619,192.068 60.806 C 191.752 60.993,190.932 61.751,190.248 62.490 C 189.563 63.230,188.538 64.325,187.970 64.925 C 187.401 65.525,186.936 66.175,186.936 66.369 C 186.936 66.563,186.673 66.877,186.352 67.066 C 186.030 67.255,185.385 67.876,184.918 68.447 C 184.450 69.017,183.867 69.708,183.622 69.982 C 183.094 70.573,181.837 72.580,181.837 72.833 C 181.837 72.930,181.646 73.230,181.413 73.500 C 181.179 73.769,180.988 74.109,180.988 74.254 C 180.988 74.399,180.701 75.096,180.351 75.803 C 180.000 76.509,179.713 77.349,179.713 77.670 C 179.713 77.990,179.561 78.861,179.374 79.605 C 179.188 80.348,179.081 81.358,179.137 81.849 C 179.397 84.111,179.965 86.642,180.432 87.618 C 180.714 88.207,181.010 88.908,181.090 89.177 C 181.327 89.972,182.899 92.665,184.297 94.669 C 185.051 95.750,185.575 96.867,185.328 96.867 C 184.982 96.867,181.205 94.732,180.782 94.297 C 180.486 93.993,179.984 93.681,179.666 93.604 C 179.348 93.526,178.976 93.253,178.839 92.997 C 178.346 92.077,176.280 89.414,175.861 89.160 C 175.626 89.017,175.299 88.614,175.135 88.263 C 174.971 87.913,174.753 87.483,174.651 87.307 C 174.549 87.132,174.236 86.511,173.956 85.927 C 173.676 85.343,173.388 84.817,173.316 84.758 C 173.244 84.700,173.116 84.413,173.031 84.121 C 172.820 83.397,172.025 81.703,171.833 81.571 C 171.567 81.387,171.159 73.916,171.312 72.029 C 171.451 70.316,172.023 68.494,173.366 65.492 C 173.586 65.002,173.765 64.538,173.765 64.461 C 173.765 64.383,174.052 63.958,174.403 63.516 C 174.753 63.073,175.040 62.553,175.040 62.360 C 175.040 62.167,175.257 61.792,175.522 61.527 C 176.415 60.634,177.377 59.315,177.377 58.982 C 177.377 58.800,177.510 58.575,177.674 58.481 C 177.837 58.388,178.520 57.594,179.191 56.718 C 179.862 55.842,180.541 54.981,180.700 54.806 C 180.858 54.631,181.388 53.962,181.876 53.319 C 182.364 52.677,182.886 52.076,183.037 51.985 C 183.187 51.894,183.643 51.320,184.049 50.710 C 184.455 50.101,185.223 49.176,185.755 48.655 C 186.288 48.134,186.723 47.583,186.723 47.431 C 186.723 47.279,187.830 46.035,189.183 44.667 C 190.535 43.300,191.764 41.888,191.914 41.530 C 192.063 41.172,192.498 40.583,192.879 40.221 C 193.260 39.858,193.680 39.451,193.812 39.315 C 193.944 39.180,194.325 38.810,194.659 38.493 C 194.993 38.177,195.710 37.450,196.252 36.879 C 196.795 36.307,197.549 35.536,197.929 35.164 C 198.309 34.793,198.619 34.397,198.619 34.285 C 198.619 34.172,198.882 33.919,199.203 33.722 C 199.821 33.344,200.984 32.260,202.806 30.362 C 203.415 29.728,204.347 28.791,204.878 28.281 L 205.842 27.354 205.842 25.509 C 205.842 24.494,205.926 23.574,206.029 23.463 C 206.894 22.533,206.299 20.605,205.148 20.605 C 203.800 20.605,199.257 17.315,199.257 16.338 C 199.257 16.231,199.117 16.144,198.947 16.144 C 198.754 16.144,198.593 15.847,198.516 15.348 C 198.449 14.910,198.255 14.121,198.085 13.595 C 197.505 11.797,198.184 7.223,199.031 7.223 C 199.130 7.223,199.270 6.984,199.344 6.691 C 199.559 5.835,199.953 6.051,199.828 6.957 M215.848 17.270 C 215.575 17.542,215.299 17.331,215.501 17.005 C 215.579 16.878,215.740 16.835,215.859 16.908 C 216.004 16.998,216.000 17.117,215.848 17.270 M215.613 61.610 C 215.613 62.029,215.720 62.241,215.932 62.241 C 216.126 62.241,216.251 62.043,216.251 61.733 C 216.251 61.453,216.107 61.169,215.932 61.102 C 215.693 61.010,215.613 61.137,215.613 61.610 M198.351 63.463 C 198.194 63.773,198.203 64.771,198.365 64.870 C 198.455 64.926,198.539 64.811,198.553 64.615 C 198.567 64.419,198.646 64.044,198.730 63.781 C 198.870 63.339,198.550 63.070,198.351 63.463 M215.940 64.935 C 216.275 65.270,216.274 65.310,215.918 65.570 C 215.709 65.723,215.592 65.901,215.657 65.966 C 215.722 66.032,215.930 65.930,216.119 65.742 C 216.481 65.379,216.264 64.578,215.803 64.578 C 215.682 64.578,215.744 64.739,215.940 64.935 M209.126 80.949 C 209.049 81.073,209.039 81.229,209.104 81.294 C 209.279 81.468,209.878 81.196,209.878 80.941 C 209.878 80.653,209.305 80.659,209.126 80.949 M200.797 88.097 C 200.256 88.291,200.524 88.794,201.168 88.794 C 201.519 88.794,201.806 88.702,201.806 88.590 C 201.806 88.312,201.125 87.980,200.797 88.097 M210.993 88.085 C 210.253 88.384,210.768 88.794,211.883 88.794 C 212.872 88.794,213.828 88.417,213.024 88.344 C 212.871 88.331,213.032 88.246,213.383 88.157 C 213.873 88.033,213.701 87.993,212.639 87.987 C 211.880 87.982,211.139 88.027,210.993 88.085 M208.062 94.089 C 208.129 94.197,208.015 94.334,207.809 94.393 C 207.603 94.452,207.913 94.491,208.497 94.480 C 209.081 94.469,209.738 94.371,209.957 94.261 C 210.238 94.121,210.311 94.133,210.206 94.303 C 210.103 94.469,210.322 94.524,210.921 94.483 C 212.288 94.389,212.224 93.893,210.845 93.893 C 210.128 93.893,209.661 93.992,209.594 94.158 C 209.508 94.371,209.483 94.371,209.470 94.158 C 209.460 93.999,209.151 93.893,208.697 93.893 C 208.281 93.893,207.996 93.981,208.062 94.089 M212.576 94.176 C 212.516 94.332,212.602 94.459,212.766 94.459 C 212.930 94.459,213.064 94.332,213.064 94.176 C 213.064 94.020,212.979 93.893,212.875 93.893 C 212.770 93.893,212.636 94.020,212.576 94.176 M214.251 94.114 C 213.910 94.216,213.552 94.250,213.454 94.190 C 213.357 94.129,213.277 94.181,213.277 94.305 C 213.277 94.648,214.463 94.573,214.764 94.211 C 214.909 94.036,214.993 93.901,214.949 93.911 C 214.905 93.921,214.591 94.013,214.251 94.114 M207.807 95.325 C 208.712 95.365,210.194 95.365,211.099 95.325 C 212.005 95.285,211.264 95.253,209.453 95.253 C 207.642 95.253,206.901 95.285,207.807 95.325 M198.903 101.540 C 198.903 102.416,198.941 102.775,198.986 102.337 C 199.032 101.899,199.032 101.182,198.986 100.743 C 198.941 100.305,198.903 100.664,198.903 101.540 M214.162 100.620 C 213.947 100.849,213.975 100.903,214.308 100.903 C 214.533 100.903,214.767 100.775,214.827 100.620 C 214.887 100.464,214.821 100.336,214.681 100.336 C 214.541 100.336,214.307 100.464,214.162 100.620 M210.515 100.803 C 210.515 101.147,210.847 101.225,211.032 100.925 C 211.097 100.820,211.007 100.680,210.833 100.613 C 210.640 100.539,210.515 100.614,210.515 100.803 M205.950 102.337 C 205.990 102.541,206.029 102.828,206.038 102.974 C 206.061 103.354,206.479 103.304,206.479 102.921 C 206.479 102.746,206.386 102.602,206.273 102.602 C 206.160 102.602,206.123 102.459,206.190 102.284 C 206.257 102.108,206.215 101.965,206.096 101.965 C 205.977 101.965,205.911 102.132,205.950 102.337 M211.721 102.974 C 211.920 103.120,212.137 103.155,212.202 103.052 C 212.267 102.948,212.512 102.816,212.746 102.758 C 212.979 102.700,212.763 102.665,212.264 102.680 C 211.484 102.705,211.408 102.745,211.721 102.974 M188.476 103.396 C 189.031 103.439,189.939 103.439,190.494 103.396 C 191.049 103.352,190.595 103.316,189.485 103.316 C 188.375 103.316,187.921 103.352,188.476 103.396 M214.262 108.018 C 214.329 108.192,214.469 108.282,214.574 108.218 C 214.873 108.032,214.795 107.700,214.452 107.700 C 214.262 107.700,214.188 107.825,214.262 108.018 M219.495 109.825 C 219.495 110.351,219.536 110.566,219.587 110.303 C 219.638 110.040,219.638 109.610,219.587 109.347 C 219.536 109.084,219.495 109.299,219.495 109.825 M194.320 113.489 C 194.424 118.383,194.500 118.853,194.542 114.870 C 194.564 112.679,194.511 110.887,194.424 110.886 C 194.336 110.886,194.289 112.057,194.320 113.489 M219.535 111.471 C 219.727 112.248,220.074 112.594,220.074 112.009 C 220.074 111.396,219.861 110.887,219.604 110.887 C 219.478 110.887,219.450 111.127,219.535 111.471 M208.520 119.083 C 208.449 119.268,208.391 119.573,208.391 119.761 C 208.391 120.183,209.010 119.448,209.021 119.012 C 209.031 118.633,208.673 118.684,208.520 119.083 M205.417 119.116 C 205.417 119.238,205.566 119.396,205.749 119.466 C 205.932 119.536,206.034 119.670,205.975 119.764 C 205.917 119.858,205.958 120.074,206.065 120.244 C 206.220 120.489,206.261 120.460,206.263 120.107 C 206.265 119.863,206.075 119.489,205.842 119.278 C 205.608 119.066,205.417 118.993,205.417 119.116 M194.446 122.252 C 194.445 123.303,194.481 123.760,194.526 123.267 C 194.570 122.774,194.571 121.914,194.527 121.355 C 194.483 120.797,194.447 121.200,194.446 122.252 M206.273 121.561 C 206.266 122.403,206.567 122.644,206.750 121.943 C 206.810 121.715,206.729 121.356,206.570 121.146 C 206.309 120.802,206.279 120.843,206.273 121.561 M207.895 121.862 C 207.651 122.107,207.741 122.358,208.072 122.358 C 208.247 122.358,208.391 122.215,208.391 122.039 C 208.391 121.708,208.140 121.618,207.895 121.862 M206.904 124.575 C 206.904 125.144,206.987 125.299,207.281 125.277 C 207.579 125.255,207.641 125.101,207.577 124.547 C 207.464 123.580,206.904 123.603,206.904 124.575 M219.693 126.036 C 219.346 126.848,219.371 127.925,219.749 128.425 C 220.056 128.830,220.061 128.830,220.068 128.401 C 220.071 128.162,219.964 127.855,219.828 127.720 C 219.642 127.534,219.646 127.398,219.843 127.160 C 219.986 126.988,220.068 126.530,220.026 126.142 L 219.948 125.438 219.693 126.036 M212.056 127.775 C 212.058 128.242,212.102 128.408,212.152 128.144 C 212.203 127.880,212.201 127.497,212.148 127.294 C 212.095 127.091,212.053 127.307,212.056 127.775 M202.398 127.881 C 202.449 128.232,202.528 128.518,202.573 128.518 C 202.618 128.518,202.655 128.232,202.655 127.881 C 202.655 127.531,202.576 127.244,202.480 127.244 C 202.383 127.244,202.346 127.531,202.398 127.881 M194.319 129.049 C 194.263 129.341,194.300 129.580,194.400 129.580 C 194.501 129.580,194.583 129.341,194.583 129.049 C 194.583 128.757,194.546 128.518,194.502 128.518 C 194.457 128.518,194.375 128.757,194.319 129.049 M201.991 129.090 C 201.740 129.400,201.743 129.425,202.018 129.271 C 202.277 129.127,202.287 129.147,202.071 129.379 C 201.925 129.537,201.807 129.957,201.809 130.313 C 201.811 130.771,201.867 130.874,202.000 130.665 C 202.151 130.427,202.208 130.448,202.291 130.771 C 202.347 130.992,202.405 130.624,202.418 129.952 C 202.445 128.615,202.419 128.562,201.991 129.090 M212.002 129.922 C 212.002 130.473,211.923 130.658,211.719 130.579 C 211.563 130.520,211.436 130.609,211.436 130.778 C 211.436 130.947,211.559 131.038,211.710 130.980 C 211.916 130.901,212.003 131.282,212.057 132.511 C 212.113 133.790,212.138 133.603,212.172 131.652 C 212.195 130.279,212.167 129.156,212.108 129.156 C 212.050 129.156,212.002 129.500,212.002 129.922 M194.350 139.352 C 194.281 141.163,194.257 142.685,194.297 142.733 C 194.535 143.019,194.588 142.252,194.536 139.329 L 194.477 136.059 194.350 139.352 M219.683 138.781 C 219.330 139.206,219.433 139.619,219.830 139.373 C 219.987 139.275,220.083 139.024,220.042 138.816 C 219.974 138.468,219.944 138.465,219.683 138.781 M219.592 141.120 C 219.751 142.394,220.074 142.605,220.074 141.435 C 220.074 140.797,219.972 140.420,219.778 140.346 C 219.544 140.256,219.505 140.418,219.592 141.120 M206.099 144.565 C 205.727 144.986,206.193 144.979,206.616 144.557 C 206.859 144.313,206.868 144.240,206.654 144.246 C 206.499 144.250,206.250 144.394,206.099 144.565 M207.966 144.557 C 208.255 144.904,208.816 144.989,208.816 144.685 C 208.816 144.490,208.313 144.238,207.923 144.238 C 207.789 144.238,207.806 144.364,207.966 144.557 M181.493 146.999 C 181.493 148.343,181.527 148.893,181.570 148.221 C 181.612 147.549,181.612 146.450,181.570 145.778 C 181.527 145.106,181.493 145.656,181.493 146.999 M211.621 145.290 C 211.914 145.760,212.120 145.701,211.929 145.203 C 211.860 145.023,211.704 144.875,211.582 144.875 C 211.442 144.875,211.456 145.028,211.621 145.290 M219.755 145.514 C 219.532 145.874,219.609 148.531,219.849 148.771 C 220.008 148.930,220.074 148.453,220.074 147.148 C 220.074 145.341,220.023 145.080,219.755 145.514 M205.886 149.875 C 205.589 150.213,205.694 150.248,206.424 150.053 C 206.685 149.983,206.847 149.840,206.783 149.737 C 206.611 149.458,206.198 149.522,205.886 149.875 M207.889 150.292 C 207.956 150.467,208.097 150.611,208.201 150.611 C 208.306 150.611,208.391 150.467,208.391 150.292 C 208.391 150.117,208.250 149.973,208.079 149.973 C 207.889 149.973,207.815 150.098,207.889 150.292 M210.515 151.885 C 210.515 152.229,210.657 152.310,211.259 152.310 C 212.077 152.310,212.152 152.217,211.699 151.764 C 211.238 151.303,210.515 151.377,210.515 151.885 M181.462 152.947 C 181.462 153.356,181.506 153.524,181.559 153.319 C 181.613 153.115,181.613 152.780,181.559 152.576 C 181.506 152.371,181.462 152.539,181.462 152.947 M194.158 154.847 C 194.158 155.190,194.063 155.531,193.946 155.603 C 193.638 155.793,193.684 156.398,193.999 156.293 C 194.253 156.209,194.517 154.222,194.274 154.222 C 194.211 154.222,194.158 154.503,194.158 154.847 M219.566 156.470 C 219.305 157.151,219.400 157.476,219.756 157.120 C 220.104 156.772,220.187 156.134,219.885 156.134 C 219.780 156.134,219.637 156.285,219.566 156.470 M229.135 162.666 C 229.081 162.754,229.267 162.839,229.548 162.856 C 229.829 162.873,230.058 162.801,230.058 162.697 C 230.058 162.467,229.274 162.441,229.135 162.666 M202.802 164.141 C 202.723 164.269,202.808 164.432,202.993 164.502 C 203.489 164.693,203.717 164.659,203.717 164.396 C 203.717 164.266,203.580 164.213,203.413 164.278 C 203.245 164.342,203.071 164.285,203.027 164.151 C 202.969 163.978,202.904 163.975,202.802 164.141 M190.267 170.505 C 190.187 170.584,190.122 170.790,190.122 170.963 C 190.122 171.135,189.974 171.384,189.792 171.517 C 189.448 171.769,189.582 172.587,189.932 172.371 C 190.037 172.306,190.122 172.630,190.122 173.091 C 190.122 173.749,190.213 173.952,190.547 174.039 C 190.856 174.120,190.972 174.329,190.972 174.808 C 190.972 175.250,191.076 175.465,191.290 175.465 C 191.566 175.465,191.675 175.898,191.593 176.678 C 191.585 176.761,191.752 176.890,191.964 176.964 C 192.177 177.039,192.360 177.234,192.372 177.398 C 192.384 177.561,192.409 178.006,192.426 178.386 C 192.448 178.843,192.566 179.076,192.777 179.076 C 193.000 179.076,193.096 179.300,193.096 179.819 C 193.096 180.403,193.181 180.563,193.492 180.563 C 193.798 180.563,193.864 180.682,193.786 181.090 C 193.643 181.840,193.899 182.687,194.269 182.687 C 194.486 182.687,194.583 182.916,194.583 183.431 C 194.583 183.950,194.679 184.174,194.902 184.174 C 195.093 184.174,195.231 184.387,195.247 184.705 C 195.272 185.208,195.313 185.456,195.431 185.820 C 195.460 185.908,195.472 186.052,195.458 186.139 C 195.444 186.227,195.552 186.275,195.698 186.245 C 195.858 186.213,195.991 186.472,196.031 186.895 C 196.068 187.281,196.236 187.650,196.403 187.714 C 196.570 187.778,196.707 188.107,196.707 188.444 C 196.707 188.826,196.867 189.156,197.132 189.322 C 197.436 189.511,197.557 189.817,197.557 190.392 C 197.557 190.912,197.670 191.241,197.876 191.320 C 198.062 191.391,198.194 191.710,198.194 192.085 C 198.194 193.019,199.041 193.733,200.147 193.733 C 200.729 193.733,201.105 193.856,201.287 194.105 C 201.536 194.445,202.117 194.477,208.139 194.477 C 214.107 194.477,214.757 194.442,215.130 194.105 C 215.356 193.901,215.680 193.733,215.850 193.733 C 216.284 193.733,217.654 191.835,217.844 190.971 C 217.931 190.576,218.134 190.121,218.295 189.960 C 218.456 189.799,218.587 189.291,218.587 188.832 C 218.587 188.253,218.680 187.998,218.889 187.998 C 219.057 187.998,219.258 187.692,219.342 187.311 C 219.425 186.932,219.618 186.526,219.770 186.408 C 219.923 186.289,220.078 185.905,220.114 185.555 C 220.153 185.184,220.291 184.940,220.446 184.971 C 220.618 185.005,220.712 184.762,220.712 184.280 C 220.712 183.820,220.873 183.375,221.136 183.112 C 221.373 182.876,221.561 182.404,221.561 182.050 C 221.561 181.625,221.668 181.413,221.880 181.413 C 222.111 181.413,222.199 181.176,222.199 180.554 C 222.199 179.861,222.269 179.707,222.561 179.757 C 222.826 179.803,222.938 179.651,222.976 179.196 C 223.005 178.853,223.177 178.490,223.357 178.389 C 223.538 178.288,223.686 177.923,223.686 177.578 C 223.686 177.185,223.796 176.952,223.981 176.952 C 224.302 176.952,224.646 175.603,224.418 175.234 C 224.342 175.112,224.481 174.959,224.726 174.895 C 224.972 174.830,225.173 174.608,225.173 174.401 C 225.173 174.193,225.320 173.967,225.500 173.897 C 225.764 173.796,225.816 173.452,225.766 172.122 L 225.704 170.473 208.058 170.416 C 198.353 170.385,190.347 170.425,190.267 170.505 M224.573 171.593 C 224.788 171.808,224.790 171.950,224.583 172.281 C 224.440 172.510,224.323 172.847,224.323 173.030 C 224.323 173.213,224.133 173.716,223.901 174.148 C 223.357 175.159,222.623 176.871,222.623 177.128 C 222.623 177.238,222.481 177.602,222.306 177.936 C 222.132 178.271,221.988 178.737,221.988 178.972 C 221.987 179.207,221.795 179.518,221.561 179.664 C 221.328 179.810,221.136 180.120,221.136 180.352 C 221.136 180.585,221.041 180.775,220.924 180.775 C 220.807 180.775,220.712 180.896,220.712 181.044 C 220.712 181.192,220.520 181.669,220.287 182.105 C 220.053 182.541,219.862 183.029,219.862 183.189 C 219.862 183.350,219.527 184.134,219.118 184.933 C 218.710 185.731,218.375 186.511,218.375 186.667 C 218.375 186.822,218.232 187.004,218.056 187.071 C 217.881 187.139,217.737 187.303,217.736 187.436 C 217.736 187.570,217.591 187.955,217.416 188.292 C 217.240 188.628,217.038 189.272,216.966 189.721 C 216.894 190.171,216.703 190.648,216.543 190.781 C 216.382 190.915,216.251 191.385,216.251 191.825 L 216.251 192.627 213.172 192.781 C 207.282 193.075,200.104 192.764,199.710 192.197 C 199.526 191.932,199.157 191.496,198.891 191.228 C 198.566 190.901,198.404 190.481,198.399 189.953 C 198.395 189.520,198.255 188.927,198.088 188.635 C 197.921 188.343,197.781 187.886,197.777 187.619 C 197.773 187.353,197.632 187.082,197.464 187.018 C 197.296 186.953,197.097 186.598,197.023 186.228 C 196.869 185.458,196.540 184.669,195.518 182.617 C 195.121 181.819,194.796 181.073,194.796 180.959 C 194.796 180.719,194.071 179.017,193.618 178.193 C 193.448 177.883,193.309 177.489,193.309 177.317 C 193.309 177.145,193.165 176.885,192.990 176.739 C 192.815 176.594,192.671 176.260,192.671 175.998 C 192.671 175.736,192.480 175.279,192.246 174.982 C 192.013 174.685,191.822 174.301,191.822 174.129 C 191.822 173.958,191.673 173.462,191.491 173.027 C 191.015 171.887,191.148 171.557,192.142 171.408 C 193.972 171.135,224.287 171.308,224.573 171.593 M211.719 195.574 C 211.502 195.791,211.550 196.070,211.805 196.070 C 211.930 196.070,212.176 195.927,212.351 195.751 C 212.634 195.468,212.625 195.433,212.265 195.433 C 212.043 195.433,211.797 195.497,211.719 195.574 M213.064 195.658 C 213.064 195.782,213.160 195.824,213.277 195.751 C 213.394 195.679,213.489 195.721,213.489 195.845 C 213.489 195.969,213.633 196.070,213.808 196.070 C 213.983 196.070,214.126 195.927,214.126 195.751 C 214.126 195.553,213.926 195.433,213.595 195.433 C 213.303 195.433,213.064 195.534,213.064 195.658 M200.420 196.511 C 200.219 197.144,200.386 197.193,200.673 196.586 C 200.806 196.302,200.836 196.070,200.738 196.070 C 200.640 196.070,200.497 196.268,200.420 196.511 " stroke="none" fill="#d68078" fill-rule="evenodd"></path></g></svg>